<?xml version="1.0" encoding="UTF-8" standalone="no"?>
<!DOCTYPE svg  PUBLIC '-//W3C//DTD SVG 1.1//EN'  'http://www.w3.org/Graphics/SVG/1.1/DTD/svg11.dtd'>
<svg xmlns="http://www.w3.org/2000/svg">
<defs>
<font id="Bariol-Regular" horiz-adv-x="518">
<font-face underline-position="-113" font-weight="400" descent="-200" panose-1="2 0 5 6 4 0 0 2 0 3" units-per-em="1000" unicode-range="U+0020-2265" bbox="-47 -227.02 1036 899" x-height="454" underline-thickness="20" font-family="Bariol" ascent="800" cap-height="681"/>
<missing-glyph horiz-adv-x="1000"/>
<glyph glyph-name="ellipsis" horiz-adv-x="703" unicode="..." d="M623 -8q-47 0 -47 47q0 48 47 48t47 -48q0 -47 -47 -47zM351 -8q-47 0 -47 47q0 48 47 48t47 -48q0 -47 -47 -47zM80 -8q-47 0 -47 47q0 48 47 48t47 -48q0 -47 -47 -47z"/>
<glyph glyph-name=".notdef" horiz-adv-x="1000"/>
<glyph glyph-name=".null" horiz-adv-x="0"/>
<glyph glyph-name="nonmarkingreturn" horiz-adv-x="1000"/>
<glyph glyph-name="space" horiz-adv-x="238" unicode=" "/>
<glyph glyph-name="exclam" horiz-adv-x="208" unicode="!" d="M104 -8q-47 0 -47 47q0 48 47 48t47 -48q0 -47 -47 -47zM104 681q36 0 35 -35l-15 -471q0 -18 -20 -18t-20 18l-15 471q-1 35 35 35z"/>
<glyph glyph-name="quotedbl" horiz-adv-x="280" unicode='&quot;' d="M196 681q15 1 22 -7t6 -20l-9 -172q-2 -17 -19 -17t-19 17l-9 172q-1 12 6 20t22 7zM84 681q15 1 22 -7t6 -20l-9 -172q-2 -17 -19 -17t-19 17l-9 172q-1 12 6 20t22 7z"/>
<glyph glyph-name="numbersign" horiz-adv-x="550" unicode="#" d="M213 396l-21 -136h139l21 136h-139zM104 23l29 189h-63q-10 0 -17 7t-7 17t7 17t17 7h71l21 136h-70q-10 0 -17 7t-7 17t7 17t17 7h78l28 187q4 21 25 21q11 0 18 -7t7 -18q0 -4 -1 -9l-26 -174h139l28 187q4 21 25 21q11 0 18 -7t7 -18q0 -4 -1 -9l-26 -174h69 q10 0 17 -7t7 -17t-7 -17t-17 -7h-77l-21 -136h76q10 0 17 -7t7 -17t-7 -17t-17 -7h-84l-31 -202q-3 -21 -25 -21q-10 -1 -18 7t-7 18q0 4 1 9l29 189h-139l-31 -202q-3 -21 -25 -21q-10 -1 -18 7t-7 18q0 4 1 9z"/>
<glyph glyph-name="dollar" horiz-adv-x="558" unicode="$" d="M443 546q-64 79 -162 79q-73 0 -109 -31t-36 -78q0 -44 39 -74t95 -48t110 -38q56 -22 95 -66t39 -110q0 -86 -54 -136t-155 -57v-75q1 -10 -7 -18t-19 -8t-19 8t-7 18v75q-74 5 -130 39t-82 83q-5 10 -5 18q0 13 9 23t23 9q18 0 28 -16q58 -95 178 -95q84 0 128 34 t44 98q0 43 -28 73q-28 31 -70 45t-91 32t-91 35q-42 18 -70 57t-28 94q0 68 47 116t138 54v76q-1 10 7 18t19 8t19 -8t7 -18v-76q126 -9 190 -102q6 -9 6 -19q1 -13 -9 -23t-23 -9q-16 0 -26 13z"/>
<glyph glyph-name="percent" horiz-adv-x="746" unicode="%" d="M558 313q77 -1 112 -45t35 -118t-35 -118t-112 -45q-76 1 -111 45t-35 118t35 118t111 45zM558 33q97 0 97 117t-97 117q-96 0 -96 -117t96 -117zM188 687q77 -1 112 -45t35 -118t-35 -118t-112 -45q-76 1 -111 45t-35 118t35 118t111 45zM188 407q97 0 97 117t-97 117 q-96 0 -96 -117t96 -117zM535 681q11 1 18 -7t7 -18q0 -6 -2 -10l-326 -641q-6 -13 -22 -13q-10 0 -18 7t-7 18q0 6 2 10l326 641q7 13 22 13z"/>
<glyph glyph-name="ampersand" horiz-adv-x="616" unicode="&amp;" d="M444 53q-74 -67 -186 -67q-94 0 -154 50t-60 139q0 104 110 183q-46 86 -46 175q0 67 38 111t104 43q58 0 96 -36t38 -98q0 -60 -38 -109t-111 -104q62 -98 199 -201q26 38 41 101q6 23 30 23q13 0 22 -9t9 -22q0 -10 -3 -20q-17 -63 -48 -111q30 -19 98 -49 q20 -9 20 -29q0 -13 -9 -22t-22 -9q-18 0 -60 21t-68 40zM392 93q-76 59 -124 107t-83 103q-77 -50 -77 -128q0 -59 44 -95t106 -36q77 0 134 49zM172 533q0 -78 33 -141q47 32 81 78t34 83q0 36 -20 56t-50 20q-38 -1 -58 -27t-20 -69z"/>
<glyph glyph-name="quotesingle" horiz-adv-x="168" unicode="&apos;" d="M84 681q15 1 22 -7t6 -20l-9 -172q-2 -17 -19 -17t-19 17l-9 172q-1 12 6 20t22 7z"/>
<glyph glyph-name="parenleft" horiz-adv-x="294" unicode="(" d="M60 296q0 207 37 302t133 137q8 3 13 3q11 0 19 -8t9 -20q0 -18 -18 -26q-31 -15 -53 -34t-36 -47t-22 -55q-8 -28 -12 -72t-5 -80t-1 -100t1 -100t5 -80t12 -72q8 -27 22 -55t36 -47t53 -34q18 -8 18 -26q-1 -12 -9 -20t-19 -8q-5 0 -13 3q-96 42 -133 137t-37 302z"/>
<glyph glyph-name="parenright" horiz-adv-x="294" unicode=")" d="M234 296q0 -207 -37 -302t-133 -137q-7 -3 -13 -3q-11 0 -19 8t-9 20q0 18 18 26q31 15 53 34t36 47t22 55q8 28 12 72t5 80t1 100t-1 100t-5 80t-12 72q-8 27 -22 55t-36 47t-53 34q-18 8 -18 26q1 12 9 20t19 8q5 0 13 -3q96 -42 133 -137t37 -302z"/>
<glyph glyph-name="asterisk" horiz-adv-x="357" unicode="*" d="M240 441l-62 93l-62 -93q-7 -11 -16 -11q-6 0 -13 5q-11 8 -11 17q0 6 5 12l64 88l-101 23q-16 4 -16 19q0 4 1 8q4 17 17 17q4 0 9 -2l105 -31l-4 106q0 20 22 20t22 -20l-4 -106l105 31q5 2 9 2q13 0 17 -17q1 -4 1 -8q0 -15 -16 -19l-101 -23l64 -88q5 -6 5 -12 q0 -9 -11 -17q-7 -5 -13 -5q-9 0 -16 11z"/>
<glyph glyph-name="plus" horiz-adv-x="454" unicode="+" d="M454 218q0 -11 -8 -19t-19 -8h-171v-170q0 -13 -8 -21t-21 -8t-21 8t-8 21v170h-171q-11 0 -19 8t-8 19t8 19t19 8h171v171q0 12 8 20t21 9q13 -1 21 -9t8 -20v-171h171q11 0 19 -8t8 -19z"/>
<glyph glyph-name="comma" horiz-adv-x="162" unicode="," d="M129 23q0 -104 -72 -179q-6 -6 -13 -6q-15 0 -15 15q0 5 3 9q37 51 37 91q0 19 -18 42t-18 44q0 48 47 48q49 0 49 -64z"/>
<glyph glyph-name="hyphen" horiz-adv-x="364" unicode="-" d="M309 252q0 -11 -8 -19t-19 -8h-200q-11 0 -19 8t-8 19t8 19t19 8h200q11 0 19 -8t8 -19z"/>
<glyph glyph-name="period" horiz-adv-x="160" unicode="." d="M80 -8q-47 0 -47 47q0 48 47 48t47 -48q0 -47 -47 -47z"/>
<glyph glyph-name="slash" horiz-adv-x="407" unicode="/" d="M41 -51l264 779q7 23 31 23q14 1 23 -9t9 -23q0 -6 -3 -15l-264 -779q-7 -23 -31 -23q-14 0 -23 9t-9 23q0 6 3 15z"/>
<glyph glyph-name="zero" horiz-adv-x="602" unicode="0" d="M301 687q127 0 187 -85t60 -265q0 -179 -60 -265t-187 -86t-187 86t-60 265q0 180 60 265t187 85zM301 46q93 0 137 68t44 223q0 154 -44 222t-137 68t-137 -68t-44 -222q0 -155 44 -223t137 -68z"/>
<glyph glyph-name="one" horiz-adv-x="351" unicode="1" d="M195 589l-107 -77q-9 -6 -19 -6q-13 0 -23 10t-9 22q0 18 14 27l157 109q10 7 20 7q14 1 24 -9t9 -24v-623q1 -13 -9 -23t-24 -10t-24 10t-9 23v564z"/>
<glyph glyph-name="two" horiz-adv-x="532" unicode="2" d="M67 557q21 62 73 96t127 34q99 0 157 -53t57 -142q1 -56 -27 -106t-69 -86q-41 -34 -89 -68t-90 -59q-40 -25 -68 -54t-28 -57h349q13 0 22 -9t9 -22t-9 -22t-22 -9h-386q-13 0 -22 9t-9 22q0 61 38 111t94 85q54 35 108 71t94 85q38 49 38 109t-39 98t-108 37 q-100 0 -142 -92q-9 -20 -29 -20q-13 0 -22 9t-9 22q0 5 2 11z"/>
<glyph glyph-name="three" horiz-adv-x="542" unicode="3" d="M264 408h10q112 0 162 -60t50 -156q0 -98 -59 -152t-172 -54q-147 0 -215 113q-5 8 -5 17q1 14 9 22t21 8q17 0 27 -16q51 -84 163 -84q81 0 123 38t42 108q0 156 -151 156h-70q-13 0 -21 8t-9 22q0 11 8 21l184 214h-258q-13 1 -21 9t-9 21q1 13 9 21t21 9h326 q13 -1 21 -9t9 -21q0 -12 -8 -21z"/>
<glyph glyph-name="four" horiz-adv-x="540" unicode="4" d="M115 217h234v336zM415 217h57q14 -1 23 -9t9 -21t-9 -23t-23 -9h-57v-130q1 -13 -9 -23t-24 -10t-24 10t-9 23v130h-292q-13 0 -22 9t-9 22q0 10 7 20l322 460q11 14 27 14q14 0 24 -10t9 -23v-430z"/>
<glyph glyph-name="five" horiz-adv-x="555" unicode="5" d="M272 446q108 0 170 -58t62 -171q0 -115 -62 -173t-170 -58q-80 0 -140 35t-91 100q-4 8 -4 15q0 13 9 22t22 9q18 0 28 -17q32 -54 73 -78t103 -24q78 0 122 42t44 127q0 84 -45 126t-121 42q-54 0 -90 -14t-70 -47q-13 -13 -27 -13q-13 0 -22 9t-9 22q0 3 2 13l58 294 q2 9 10 17t20 7h304q13 0 22 -9t9 -22t-9 -22t-22 -9h-282l-40 -205q57 40 146 40z"/>
<glyph glyph-name="six" horiz-adv-x="566" unicode="6" d="M285 46q167 0 167 165q0 82 -44 122t-117 40q-111 0 -172 -109q-1 -98 43 -158t123 -60zM291 433q103 0 165 -56t62 -166q0 -117 -62 -171t-171 -54q-121 0 -179 90t-58 245q0 366 251 366q55 -1 98 -17t63 -38q10 -10 10 -23t-9 -22t-22 -9q-10 0 -21 8q-55 41 -119 41 q-185 0 -185 -282q24 35 70 61t107 27z"/>
<glyph glyph-name="seven" horiz-adv-x="483" unicode="7" d="M111 24q0 92 29 172q28 80 70 135t84 101t70 92q29 46 29 87h-337q-13 0 -22 9t-9 22t9 22t22 9h373q13 0 22 -9t9 -22q0 -62 -30 -118t-70 -105q-42 -48 -84 -100q-42 -53 -72 -129t-29 -166q1 -14 -9 -23t-23 -9t-23 9t-9 23z"/>
<glyph glyph-name="eight" horiz-adv-x="554" unicode="8" d="M277 335q-81 0 -125 -36t-43 -109q0 -72 45 -108t123 -36t123 36t45 108q1 73 -43 109t-125 36zM277 627q-66 -1 -102 -29t-36 -85q1 -58 37 -88t101 -30t101 30t37 88q0 57 -36 85t-102 29zM277 -14q-107 0 -171 52t-63 152q0 64 31 110t87 68q-88 47 -88 145 q1 87 55 131t149 43q95 1 149 -43t55 -131q0 -98 -88 -145q56 -22 87 -68t31 -110q1 -100 -63 -152t-171 -52z"/>
<glyph glyph-name="nine" horiz-adv-x="566" unicode="9" d="M281 627q-167 0 -167 -165q0 -82 44 -122t117 -40q111 0 172 109q1 98 -43 158t-123 60zM275 240q-103 0 -165 56t-62 166q0 116 62 170t171 55q121 0 179 -90t58 -245q0 -366 -251 -366q-55 0 -98 16t-63 39q-10 10 -10 23t9 22t22 9q10 0 21 -8q55 -41 119 -41 q185 0 185 282q-24 -36 -70 -62t-107 -26z"/>
<glyph glyph-name="colon" horiz-adv-x="160" unicode=":" d="M80 361q-47 0 -47 47q0 48 47 48t47 -48q0 -47 -47 -47zM80 -8q-47 0 -47 47q0 48 47 48t47 -48q0 -47 -47 -47z"/>
<glyph glyph-name="semicolon" horiz-adv-x="160" unicode=";" d="M80 361q-47 0 -47 47q0 48 47 48t47 -48q0 -47 -47 -47zM129 23q0 -104 -72 -179q-6 -6 -13 -6q-15 0 -15 15q0 5 3 9q37 51 37 91q0 19 -18 42t-18 44q0 48 47 48q49 0 49 -64z"/>
<glyph glyph-name="less" horiz-adv-x="337" unicode="&lt;" d="M0 235q0 14 13 23l281 222q7 5 16 5q11 0 19 -8t8 -19q0 -14 -11 -22l-260 -201l260 -201q11 -8 11 -22q0 -11 -8 -19t-19 -8q-9 0 -16 5l-281 222q-13 9 -13 23z"/>
<glyph glyph-name="equal" horiz-adv-x="454" unicode="=" d="M454 141q0 -11 -8 -19t-19 -8h-400q-11 0 -19 8t-8 19t8 19t19 8h400q11 0 19 -8t8 -19zM454 294q0 -11 -8 -19t-19 -8h-400q-11 0 -19 8t-8 19t8 19t19 8h400q11 0 19 -8t8 -19z"/>
<glyph glyph-name="greater" horiz-adv-x="337" unicode="&gt;" d="M337 235q0 -14 -13 -23l-281 -222q-7 -5 -16 -5q-11 0 -19 8t-8 19q0 14 11 22l260 201l-260 201q-11 8 -11 22q0 11 8 19t19 8q9 0 16 -5l281 -222q13 -9 13 -23z"/>
<glyph glyph-name="question" horiz-adv-x="461" unicode="?" d="M205 -8q-47 0 -47 47q0 48 47 48t47 -48q0 -47 -47 -47zM185 158q-32 32 -32 85q-1 36 21 64q22 27 53 47t61 40t52 52t22 72q0 54 -35 82t-99 28q-60 0 -94 -30t-34 -90q0 -14 -10 -24t-23 -9q-13 -1 -23 9t-10 24q0 84 51 132t143 47q94 0 146 -44t52 -125 q0 -50 -21 -88t-51 -62t-62 -42q-30 -20 -51 -40t-21 -43q0 -19 14 -40q8 -12 8 -22q0 -15 -10 -24t-23 -9q-14 0 -24 10z"/>
<glyph glyph-name="at" horiz-adv-x="801" unicode="@" d="M379 37q43 -1 75 25t33 72v33h-116q-80 0 -80 -65q1 -31 23 -48t65 -17zM494 54q-39 -61 -119 -61q-58 0 -96 29t-38 80q1 50 35 79t95 29h116v25q1 37 -25 57t-68 20q-52 0 -88 -41q-9 -9 -20 -9q-10 0 -17 7t-7 17q0 8 5 15q43 58 127 58q69 0 105 -35t36 -94v-122 q0 -40 16 -56t49 -17q56 0 84 36t27 124q-1 150 -83 223t-229 73q-149 1 -229 -75t-80 -244q0 -170 80 -244t229 -74t231 55q6 4 13 4q9 -1 16 -7t7 -16q0 -12 -10 -19q-99 -61 -257 -61q-173 0 -266 90t-93 272t93 272t266 91q163 0 263 -87t99 -253q1 -29 -3 -55t-14 -53 q-10 -28 -28 -48q-17 -20 -47 -33t-69 -13q-80 0 -106 61z"/>
<glyph glyph-name="A" horiz-adv-x="613" unicode="A" d="M446 199h-279l-73 -183q-9 -24 -33 -24q-14 0 -24 10t-10 24q0 9 3 15l244 617q10 23 32 23q23 0 33 -23l244 -617q3 -7 3 -15q0 -14 -10 -24t-25 -10q-24 0 -33 23zM425 261l-119 306l-118 -306h237z"/>
<glyph glyph-name="B" horiz-adv-x="561" unicode="B" d="M314 0h-200q-14 0 -24 10t-10 24v605q0 14 10 24t24 10h170q104 0 154 -47t50 -131q0 -49 -27 -87t-70 -49q58 -14 93 -56t35 -111q1 -88 -53 -140t-152 -52zM148 321v-259h165q67 0 102 34t35 96q0 61 -36 95t-101 34h-165zM148 611v-232h135q66 0 101 31t35 85 q0 116 -136 116h-135z"/>
<glyph glyph-name="C" horiz-adv-x="631" unicode="C" d="M356 -14q-312 0 -312 350q0 174 82 262t230 89q71 -1 130 -29t95 -77q7 -10 7 -21q0 -14 -9 -23t-23 -9q-16 0 -26 13q-28 37 -74 61t-100 23q-118 0 -180 -72t-62 -217q0 -152 61 -220t181 -68q52 0 99 21t75 61q9 13 26 13q14 1 23 -9t9 -23q0 -10 -6 -19 q-33 -48 -95 -77t-131 -29z"/>
<glyph glyph-name="D" horiz-adv-x="608" unicode="D" d="M114 673h141q149 1 229 -79t80 -258t-80 -257t-229 -79h-141q-14 0 -24 10t-10 24v605q0 14 10 24t24 10zM148 611v-549h107q118 0 179 62t61 212q0 148 -61 212t-179 63h-107z"/>
<glyph glyph-name="E" d="M446 0h-332q-14 0 -24 10t-10 24v605q0 14 10 24t24 10h321q13 0 22 -9t9 -22t-9 -22t-22 -9h-287v-241h220q13 0 22 -9t9 -22t-9 -22t-22 -9h-220v-246h298q13 0 22 -9t9 -22t-9 -22t-22 -9z" unicode="E"/>
<glyph glyph-name="F" d="M148 300v-274q0 -14 -10 -24t-24 -10t-24 10t-10 24v613q0 14 10 24t24 10h321q13 0 22 -9t9 -22t-9 -22t-22 -9h-287v-249h220q13 0 22 -9t9 -22t-9 -22t-22 -9h-220z" unicode="F"/>
<glyph glyph-name="G" horiz-adv-x="663" unicode="G" d="M356 48q122 0 186 80v145h-167q-13 0 -22 9t-9 22t9 22t22 9h202q11 0 21 -9t10 -22v-175q0 -17 -13 -33q-94 -110 -239 -110q-312 0 -312 350q0 174 82 262t230 89q71 -1 130 -29t95 -77q7 -10 7 -21q0 -14 -9 -23t-23 -9q-16 0 -26 13q-27 37 -73 61t-101 23 q-118 0 -180 -72t-62 -217q0 -152 61 -220t181 -68z"/>
<glyph glyph-name="H" horiz-adv-x="644" unicode="H" d="M496 314h-348v-288q0 -14 -10 -24t-24 -10t-24 10t-10 24v621q0 14 10 24t24 10t24 -10t10 -24v-271h348v271q0 14 10 24t24 10t24 -10t10 -24v-621q0 -14 -10 -24t-24 -10t-24 10t-10 24v288z"/>
<glyph glyph-name="I" horiz-adv-x="228" unicode="I" d="M148 647v-621q0 -14 -10 -24t-24 -10t-24 10t-10 24v621q0 14 10 24t24 10t24 -10t10 -24z"/>
<glyph glyph-name="J" horiz-adv-x="413" unicode="J" d="M35 10q-19 11 -19 30q0 14 10 24t23 9q7 0 20 -6q32 -16 74 -16q63 0 93 41t29 111v444q0 14 10 24t24 10t24 -10t10 -24v-444q1 -99 -45 -157t-145 -59q-68 0 -108 23z"/>
<glyph glyph-name="K" horiz-adv-x="554" unicode="K" d="M148 335l291 333q10 13 27 13q14 -1 24 -11t11 -24q0 -12 -10 -24l-209 -234l242 -341q7 -11 7 -21q0 -14 -10 -24t-24 -10q-18 0 -29 16l-232 330l-88 -99v-213q0 -14 -10 -24t-24 -10t-24 10t-10 24v621q0 14 10 24t24 10t24 -10t10 -24v-312z"/>
<glyph glyph-name="L" horiz-adv-x="483" unicode="L" d="M148 64h274q14 0 23 -9t9 -23t-9 -23t-23 -9h-308q-14 0 -24 10t-10 24v613q0 14 10 24t24 10t24 -10t10 -24v-583z"/>
<glyph glyph-name="M" horiz-adv-x="761" unicode="M" d="M375 109q-21 0 -30 19l-209 389v-492q0 -13 -10 -23t-23 -10t-23 10t-10 23v623q0 14 10 24t23 9q21 0 30 -19l242 -453l243 453q11 19 30 19q14 1 24 -9t9 -24v-623q1 -13 -9 -23t-24 -10t-24 10t-9 23v492l-210 -389q-10 -19 -30 -19z"/>
<glyph glyph-name="N" horiz-adv-x="620" unicode="N" d="M517 681q13 1 23 -9t10 -24v-622q0 -14 -10 -24t-24 -10q-17 0 -28 14l-352 531v-512q0 -13 -10 -23t-23 -10t-23 10t-10 23v623q0 14 10 24t23 9q17 0 27 -14l354 -532v513q0 14 10 24t23 9z"/>
<glyph glyph-name="O" horiz-adv-x="712" unicode="O" d="M356 625q-118 0 -180 -72t-62 -217q0 -144 62 -216t180 -72t180 72t62 216q0 145 -62 217t-180 72zM356 -14q-148 0 -230 88t-82 262t82 262t230 89q148 -1 230 -89t82 -262t-82 -262t-230 -88z"/>
<glyph glyph-name="P" horiz-adv-x="544" unicode="P" d="M148 282v-256q0 -14 -10 -24t-24 -10t-24 10t-10 24v613q0 14 10 24t24 10h199q85 1 138 -49t53 -146t-53 -146t-138 -50h-165zM148 611v-267h155q62 0 97 35t35 99q1 65 -35 99t-97 34h-155z"/>
<glyph glyph-name="Q" horiz-adv-x="712" unicode="Q" d="M356 625q-118 0 -180 -72t-62 -217q0 -144 62 -216t180 -72t180 72t62 216q0 145 -62 217t-180 72zM356 -14q-148 0 -230 88t-82 262t82 262t230 89q148 -1 230 -89t82 -262q0 -249 -166 -323q46 -20 72 -52q10 -13 10 -25q0 -14 -10 -24t-24 -9q-14 0 -25 11 q-37 40 -69 56t-100 16z"/>
<glyph glyph-name="R" horiz-adv-x="546" unicode="R" d="M148 291v-265q0 -14 -10 -24t-24 -10t-24 10t-10 24v613q0 14 10 24t24 10h199q83 0 137 -55t54 -136q0 -79 -50 -133t-129 -58l183 -244q7 -8 7 -21q0 -14 -10 -24t-24 -10q-18 0 -29 16l-203 283h-101zM148 611v-258h167q52 0 86 37t34 92q-1 56 -35 92t-88 37h-164z "/>
<glyph glyph-name="S" horiz-adv-x="558" unicode="S" d="M443 546q-64 79 -162 79q-73 0 -109 -31t-36 -78q0 -44 39 -74t95 -48t110 -38q56 -22 95 -66t39 -110q0 -94 -62 -144t-178 -50q-82 0 -144 36t-89 87q-5 10 -5 18q0 13 9 23t23 9q18 0 28 -16q58 -95 178 -95q84 0 128 34t44 98q0 43 -28 73q-28 31 -70 45t-91 32 t-91 35q-42 18 -70 57t-28 94q0 74 54 122t159 49q70 1 126 -27t88 -76q6 -9 6 -19q1 -13 -9 -23t-23 -9q-16 0 -26 13z"/>
<glyph glyph-name="T" horiz-adv-x="538" unicode="T" d="M235 609h-179q-14 -1 -23 9t-9 23t9 23t23 9h425q13 1 23 -9t9 -23q1 -13 -9 -23t-23 -9h-178v-583q0 -14 -10 -24t-24 -10t-24 10t-10 24v583z"/>
<glyph glyph-name="U" horiz-adv-x="624" unicode="U" d="M315 -14q-235 0 -235 219v442q0 14 10 24t24 10t24 -10t10 -24v-442q0 -33 7 -59t25 -48q18 -24 51 -36q34 -12 84 -12q94 0 130 42t36 113v442q0 14 10 24t24 10t24 -10t10 -24v-442q0 -219 -234 -219z"/>
<glyph glyph-name="V" horiz-adv-x="576" unicode="V" d="M288 121l203 538q8 22 32 22q14 0 24 -10t10 -24q0 -6 -3 -15l-234 -617q-8 -23 -32 -23t-32 23l-234 617q-3 9 -3 15q0 14 10 24t24 10q24 0 32 -22z"/>
<glyph glyph-name="W" horiz-adv-x="818" unicode="W" d="M553 18l-144 509l-144 -509q-7 -26 -33 -26t-33 25l-177 618q-2 8 -2 12q0 14 10 24t24 10q26 0 33 -25l146 -517l143 517q6 25 33 25t33 -25l143 -517l146 517q7 25 33 25q14 0 24 -10t10 -24q0 -4 -2 -12l-177 -618q-7 -25 -33 -25t-33 26z"/>
<glyph glyph-name="X" horiz-adv-x="500" unicode="X" d="M432 5l-182 279l-182 -279q-8 -13 -27 -13q-14 0 -24 10t-10 24q0 10 5 18l200 301l-188 284q-5 7 -5 18q0 14 10 24t24 10q18 0 30 -17l167 -256l167 256q12 17 30 17q14 0 24 -10t10 -24q0 -11 -5 -18l-188 -284l200 -301q5 -8 5 -18q0 -14 -10 -24t-24 -10 q-19 0 -27 13z"/>
<glyph glyph-name="Y" d="M259 -8q-14 0 -24 10t-10 24v287l-201 316q-5 8 -5 18q0 14 10 24t24 10q19 0 29 -16l177 -284l177 284q10 16 29 16q14 0 24 -10t10 -24q0 -10 -5 -18l-201 -316v-287q0 -14 -10 -24t-24 -10z" unicode="Y"/>
<glyph glyph-name="Z" horiz-adv-x="513" unicode="Z" d="M469 0h-420q-13 0 -23 9t-9 23q0 10 6 19l372 558h-325q-14 -1 -23 9t-9 23t9 23t23 9h384q14 1 23 -9t9 -23q0 -10 -6 -19l-369 -558h358q13 0 23 -9t9 -23q1 -14 -9 -23t-23 -9z"/>
<glyph glyph-name="bracketleft" horiz-adv-x="259" unicode="[" d="M239 -120q1 -10 -7 -18t-19 -8h-101q-14 0 -23 9t-9 23v820q0 14 9 23t23 9h101q11 0 19 -8t7 -18q1 -10 -7 -18t-19 -8h-69v-780h69q11 0 19 -8t7 -18z"/>
<glyph glyph-name="backslash" horiz-adv-x="407" unicode="\" d="M102 728l264 -779q3 -9 3 -15q1 -14 -9 -23t-23 -9q-24 0 -31 23l-264 779q-3 9 -3 15q-1 13 9 23t23 9q24 0 31 -23z"/>
<glyph glyph-name="bracketright" horiz-adv-x="259" unicode="]" d="M20 -120q0 10 8 18t18 8h69v780h-69q-10 0 -18 8t-8 18t8 18t18 8h101q13 0 23 -9t9 -23v-820q1 -14 -9 -23t-23 -9h-101q-10 0 -18 8t-8 18z"/>
<glyph glyph-name="asciicircum" horiz-adv-x="468" unicode="^" d="M379 353l-145 261l-145 -261q-7 -13 -23 -13q-11 0 -19 8t-8 19q0 7 3 13l169 298q7 13 23 13t23 -13l169 -298q3 -6 3 -13q0 -11 -8 -19t-19 -8q-16 0 -23 13z"/>
<glyph glyph-name="underscore" horiz-adv-x="406" unicode="_" d="M427 -70q0 -11 -8 -19t-19 -8h-394q-11 0 -19 8t-8 19t8 19t19 8h394q11 0 19 -8t8 -19z"/>
<glyph glyph-name="grave" horiz-adv-x="370" unicode="`" d="M249 520q-7 -6 -14 -6l-16 8l-97 98q-8 8 -8 17q0 10 11 21q11 10 21 10t17 -10l89 -108q6 -8 6 -14q0 -9 -9 -16z"/>
<glyph glyph-name="a" horiz-adv-x="467" unicode="a" d="M213 45q57 0 97 34t40 94v42h-141q-51 1 -81 -21t-29 -64q0 -85 114 -85zM232 408q-71 0 -116 -51q-13 -14 -26 -14q-12 1 -20 9t-9 20q0 9 5 17q50 79 166 79q86 0 133 -46t47 -124v-275q0 -13 -9 -22t-22 -9t-22 9t-9 22v36q-18 -34 -57 -53t-86 -19q-81 -1 -127 37 t-46 106q0 66 47 104t128 37h141v27q0 50 -32 80t-86 30z"/>
<glyph glyph-name="b" horiz-adv-x="501" unicode="b" d="M265 468q201 0 201 -240q0 -121 -53 -181t-152 -60q-89 1 -143 51t-53 146v496q-1 14 9 23t23 9t23 -9t9 -23v-277q19 27 55 46t81 19zM129 322v-138q0 -69 36 -104t96 -35q141 0 141 183q0 182 -141 182q-25 0 -49 -9t-38 -22t-26 -26q-10 -13 -14 -22z"/>
<glyph glyph-name="c" horiz-adv-x="441" unicode="c" d="M35 228q-1 120 53 180t153 60q58 0 97 -22t57 -47q7 -10 7 -19q0 -13 -8 -21t-21 -8t-24 12q-41 47 -108 47q-141 0 -141 -182q0 -183 141 -183q58 0 116 43q10 7 19 7q12 -1 20 -9t9 -20q0 -13 -13 -25q-66 -54 -151 -54q-99 0 -153 60t-53 181z"/>
<glyph glyph-name="d" horiz-adv-x="501" unicode="d" d="M236 468q45 0 81 -19t55 -46v277q0 14 9 23t23 9t23 -9t9 -23v-496q0 -96 -54 -146t-142 -51q-99 0 -152 60t-53 181q0 240 201 240zM372 184v138l-5 10t-15 20q-12 16 -25 28t-37 20q-24 10 -50 10q-141 0 -141 -182q0 -183 141 -183q60 0 96 35t36 104z"/>
<glyph glyph-name="e" horiz-adv-x="466" unicode="e" d="M369 265q0 145 -128 145q-64 0 -100 -38t-41 -107h269zM35 228q0 116 54 178t152 62q46 0 81 -14q36 -14 56 -35t32 -49t18 -50q4 -24 4 -47q0 -15 -1 -23t-4 -19t-12 -17t-23 -5h-292q0 -75 40 -119t111 -44q63 0 120 43q9 6 18 6q13 -1 21 -9t8 -20t-11 -23 q-56 -56 -156 -56q-103 -1 -159 59t-57 182z"/>
<glyph glyph-name="f" horiz-adv-x="289" unicode="f" d="M85 394h-34q-13 0 -21 8t-9 22q1 14 9 22t21 8h34v59q-1 74 43 123t130 49q14 -1 22 -9t8 -21t-8 -21t-22 -9q-56 0 -82 -30t-27 -82v-59h91q14 0 22 -8t8 -22t-8 -22t-22 -8h-91v-370q1 -14 -9 -23t-23 -9t-23 9t-9 23v370z"/>
<glyph glyph-name="g" horiz-adv-x="478" unicode="g" d="M390 -57q0 76 -110 76h-104q-84 -14 -84 -80q0 -43 42 -63t107 -21q65 0 107 21t42 67zM229 190q57 0 88 30t31 80t-31 80t-88 30t-88 -30t-31 -80t31 -80t88 -30zM229 468q63 0 107 -25q14 26 34 40t55 14q13 -1 21 -9t8 -20t-8 -20t-21 -9q-34 0 -48 -31 q36 -44 36 -108q0 -76 -49 -122t-135 -46q-64 0 -108 25q-18 -15 -18 -36q0 -42 74 -42h103q77 -1 126 -35t49 -101q0 -74 -59 -109t-156 -35q-57 -1 -102 11t-78 44t-33 85q0 70 76 101q-28 8 -45 30t-17 51q0 43 40 70q-36 45 -36 109q0 76 49 122t135 46z"/>
<glyph glyph-name="h" horiz-adv-x="501" unicode="h" d="M262 468q184 0 184 -177v-267q0 -14 -9 -23t-23 -9t-23 9t-9 23v254q0 65 -26 99t-94 34q-133 0 -133 -140v-247q1 -14 -9 -23t-23 -9t-23 9t-9 23v656q-1 14 9 23t23 9t23 -9t9 -23v-282q15 30 51 50t82 20z"/>
<glyph glyph-name="i" horiz-adv-x="193" unicode="i" d="M96 556q-38 0 -38 38q0 40 38 40t38 -40q0 -38 -38 -38zM128 430v-406q0 -14 -9 -23t-23 -9t-23 9t-9 23v406q0 14 9 23t23 9t23 -9t9 -23z"/>
<glyph glyph-name="j" horiz-adv-x="194" unicode="j" d="M97 556q-38 0 -38 38q0 40 38 40t38 -40q0 -38 -38 -38zM65 -35v465q-1 14 9 23t23 9t23 -9t9 -23v-465q1 -64 -41 -107t-105 -43q-13 1 -21 9t-9 21q1 13 9 21t21 9q36 0 59 26t23 64z"/>
<glyph glyph-name="k" horiz-adv-x="453" unicode="k" d="M395 -8q-16 0 -28 15l-177 227l-61 -49v-161q1 -14 -9 -23t-23 -9t-23 9t-9 23v656q-1 14 9 23t23 9t23 -9t9 -23v-419l236 193q9 8 22 8t23 -9t9 -23q0 -16 -13 -26l-164 -131l178 -229q7 -8 7 -20q1 -14 -9 -23t-23 -9z"/>
<glyph glyph-name="l" horiz-adv-x="219" unicode="l" d="M97 712q13 0 23 -10t9 -22v-571q0 -57 40 -57q12 0 21 -8t9 -22t-9 -22t-21 -8q-104 0 -104 117v571q-1 12 9 22t23 10z"/>
<glyph glyph-name="m" horiz-adv-x="808" unicode="m" d="M564 468q189 0 189 -177v-267q1 -14 -9 -23t-23 -9t-23 9t-9 23v254q0 64 -28 98t-97 35q-63 1 -94 -31t-31 -89v-267q1 -14 -9 -23t-23 -9t-23 9t-9 23v254q0 65 -27 99t-96 34q-123 0 -123 -140v-247q1 -14 -9 -23t-23 -9t-23 9t-9 23v406q-1 14 9 23t23 9t23 -9t9 -23 v-32q14 30 49 50t81 20q117 0 159 -70q45 70 146 70z"/>
<glyph glyph-name="n" horiz-adv-x="501" unicode="n" d="M262 468q184 0 184 -177v-267q0 -14 -9 -23t-23 -9t-23 9t-9 23v254q0 65 -26 99t-94 34q-133 0 -133 -140v-247q1 -14 -9 -23t-23 -9t-23 9t-9 23v406q-1 14 9 23t23 9t23 -9t9 -23v-32q15 30 51 50t82 20z"/>
<glyph glyph-name="o" horiz-adv-x="490" unicode="o" d="M245 45q145 0 145 183q0 182 -145 182t-145 -182q0 -183 145 -183zM245 468q100 0 155 -60t55 -180t-55 -180t-155 -61q-99 1 -155 61t-55 180q0 120 55 180t155 60z"/>
<glyph glyph-name="p" horiz-adv-x="509" unicode="p" d="M127 228q0 -92 38 -138t100 -45q144 0 144 183q0 182 -146 182q-60 0 -98 -45t-38 -137zM97 462q13 0 23 -10t9 -22v-32q17 28 53 49t83 21q101 0 155 -60t54 -180t-54 -180t-155 -61q-47 1 -83 21t-53 49v-226q1 -13 -9 -23t-23 -9q-13 -1 -23 9t-9 23v599q-1 12 9 22 t23 10z"/>
<glyph glyph-name="q" horiz-adv-x="490" unicode="q" d="M236 -13q-201 0 -201 240q0 121 53 181t152 60q88 0 142 -50t54 -147v-440q0 -13 -9 -23t-23 -9q-14 -1 -23 9t-9 23v221q-19 -27 -55 -46t-81 -19zM372 133v138q0 69 -36 104t-96 35q-141 0 -141 -183q0 -182 141 -182q26 0 50 9t38 22t24 26t16 22z"/>
<glyph glyph-name="r" horiz-adv-x="309" unicode="r" d="M129 430v-44q17 36 53 58t86 22q13 0 22 -9t9 -22t-9 -22t-22 -9q-67 0 -103 -42t-36 -114v-224q1 -14 -9 -23t-23 -9t-23 9t-9 23v406q-1 14 9 23t23 9t23 -9t9 -23z"/>
<glyph glyph-name="s" horiz-adv-x="424" unicode="s" d="M207 406q-89 0 -89 -60q0 -29 27 -48q27 -20 66 -32t77 -27t66 -45q27 -30 27 -74q1 -64 -47 -98t-123 -34q-57 0 -103 22t-68 50q-7 10 -7 19q1 13 9 21t20 8t22 -10q49 -49 127 -49q47 0 77 17t29 54q0 28 -27 46q-28 18 -66 32q-38 12 -77 27t-66 45t-27 76 q0 60 42 90t111 31q104 0 152 -64q7 -9 7 -19q0 -12 -8 -20t-21 -9q-12 0 -21 9q-44 42 -109 42z"/>
<glyph glyph-name="t" horiz-adv-x="279" unicode="t" d="M90 454v105q0 13 10 23t22 9q12 1 22 -9t10 -23v-105h65q13 0 21 -8t9 -22q-1 -14 -9 -22t-21 -8h-65v-276q0 -30 16 -48t42 -18q13 0 22 -8t9 -22t-9 -22t-22 -8q-58 0 -90 35t-32 91v276h-39q-13 0 -21 8t-9 22q1 14 9 22t21 8h39z"/>
<glyph glyph-name="u" horiz-adv-x="482" unicode="u" d="M87 462q13 0 23 -10t9 -22v-261q0 -57 26 -89t96 -32t96 32t26 89v261q-1 12 9 22t24 10q13 0 22 -10t9 -22v-261q0 -83 -40 -133t-146 -49q-106 -1 -146 49t-40 133v261q-1 14 9 23t23 9z"/>
<glyph glyph-name="v" horiz-adv-x="438" unicode="v" d="M219 -8q-21 0 -30 20l-170 404q-3 9 -3 14q0 14 9 23t23 9q22 0 30 -21l141 -345l141 345q8 21 30 21q14 0 23 -9t9 -23q0 -5 -3 -14l-170 -404q-9 -20 -30 -20z"/>
<glyph glyph-name="w" horiz-adv-x="640" unicode="w" d="M412 15l-92 317l-92 -317q-7 -23 -31 -23q-22 0 -30 21l-147 403q-3 8 -3 14q-1 14 9 23t23 9q22 0 30 -21l116 -331l95 331q6 21 30 21t30 -21l95 -331l116 331q8 21 30 21q13 0 23 -9t9 -23q0 -6 -3 -14l-147 -403q-8 -21 -30 -21q-24 0 -31 23z"/>
<glyph glyph-name="x" horiz-adv-x="412" unicode="x" d="M331 5l-125 177l-125 -177q-9 -13 -26 -13q-13 0 -23 9t-9 23q0 12 6 19l137 189l-133 179q-6 10 -6 19q-1 14 9 23t23 9q16 0 26 -13l121 -166l121 166q10 13 26 13q13 0 23 -9t9 -23q0 -9 -6 -19l-133 -179l137 -189q6 -8 6 -19q1 -14 -9 -23t-23 -9q-17 0 -26 13z"/>
<glyph glyph-name="y" horiz-adv-x="438" unicode="y" d="M35 -141q26 0 46 8q21 8 33 18q12 9 26 35t22 42t24 57l-167 397q-3 9 -3 14q0 14 9 23t23 9q22 0 30 -21l141 -345l141 345q8 21 30 21q14 0 23 -9t9 -23q0 -5 -3 -14l-197 -469q-32 -76 -75 -112t-112 -36q-13 1 -21 9t-9 21q1 13 9 21t21 9z"/>
<glyph glyph-name="z" horiz-adv-x="405" unicode="z" d="M38 424q0 14 8 22t22 8h274q14 0 22 -8t8 -22q0 -11 -7 -20l-249 -342h231q13 0 22 -9t9 -22t-9 -22t-22 -9h-293q-14 0 -22 8t-8 22q0 11 7 20l252 344h-215q-14 0 -22 8t-8 22z"/>
<glyph glyph-name="braceleft" horiz-adv-x="338" unicode="{" d="M312 -118q0 -12 -8 -20t-20 -8q-71 0 -106 34t-35 83q0 26 6 104t6 106q0 54 -26 73t-74 19h-7q-10 1 -16 7t-7 16q1 10 7 16t16 7h7q48 0 74 19t26 74q0 32 -6 94t-6 116q-1 48 35 82t106 34q12 0 20 -8t8 -20t-8 -20t-20 -8q-74 0 -74 -73q0 -23 4 -92t4 -97 q0 -56 -32 -90t-89 -34q57 0 89 -34t32 -90q0 -24 -4 -95t-4 -94q0 -73 74 -73q12 0 20 -8t8 -20z"/>
<glyph glyph-name="bar" horiz-adv-x="216" unicode="|" d="M141 775v-902q1 -13 -9 -23t-24 -10t-24 10t-9 23v902q-1 13 9 23t24 10t24 -10t9 -23z"/>
<glyph glyph-name="braceright" horiz-adv-x="338" unicode="}" d="M26 -118q0 12 8 20t20 8q74 0 74 73q0 23 -4 94t-4 95q0 56 32 90t89 34q-57 0 -89 34t-32 90q0 28 4 97t4 92q0 73 -74 73q-12 0 -20 8t-8 20t8 20t20 8q70 0 106 -34t35 -82q0 -54 -6 -116t-6 -94q0 -55 26 -74t74 -19h7q10 -1 16 -7t7 -16q-1 -10 -7 -16t-16 -7h-7 q-48 0 -74 -19t-26 -73q0 -28 6 -106t6 -104q0 -49 -35 -83t-106 -34q-12 0 -20 8t-8 20z"/>
<glyph glyph-name="asciitilde" horiz-adv-x="477" unicode="~" d="M329 293q19 -1 31 7t16 14t11 20q8 16 25 16q10 0 18 -8t8 -18q0 -6 -2 -12q-10 -32 -37 -52t-70 -20t-99 32t-83 33q-19 1 -31 -7t-16 -14t-11 -20q-8 -16 -25 -16q-10 0 -18 8t-8 18q0 6 2 12q10 32 37 52t70 20q41 0 97 -32t85 -33z"/>
<glyph glyph-name="nbspace" horiz-adv-x="283" unicode=" "/>
<glyph glyph-name="exclamdown" horiz-adv-x="208" unicode="¡" d="M104 468q47 0 47 -47q0 -48 -47 -48t-47 48q0 47 47 47zM104 -221q-36 0 -35 35l15 471q0 18 20 18t20 -18l15 -471q1 -35 -35 -35z"/>
<glyph glyph-name="cent" horiz-adv-x="441" unicode="¢" d="M35 228q0 222 180 238v57q-1 11 7 19t19 7q11 1 19 -7t7 -19v-57q48 -6 80 -26t48 -41q7 -10 7 -19q0 -13 -8 -21t-21 -8t-24 12q-41 47 -108 47q-141 0 -141 -182q0 -183 141 -183q58 0 116 43q10 7 19 7q12 -1 20 -9t9 -20q0 -13 -13 -25q-57 -46 -125 -53v-69 q1 -11 -7 -19t-19 -7q-11 -1 -19 7t-7 19v70q-180 16 -180 239z"/>
<glyph glyph-name="sterling" horiz-adv-x="591" unicode="£" d="M524 119q14 1 23 -9t9 -23q0 -8 -4 -16q-44 -86 -145 -86q-33 -1 -93 23t-93 24q-16 0 -30 -2q-13 -2 -25 -8q-12 -4 -19 -8t-15 -10t-10 -6q-12 -7 -20 -7q-14 -1 -23 9t-9 23q0 14 14 27q28 22 54 68t26 81q0 36 -22 83h-48q-14 0 -22 8t-8 22t8 22t22 8h19 q-42 79 -42 155q0 83 59 137t156 53q168 0 222 -133q3 -8 3 -14q1 -14 -9 -23t-23 -9q-21 0 -31 23q-39 95 -162 95q-66 0 -108 -35t-43 -94q0 -66 51 -155h175q13 0 21 -8t9 -22q-1 -14 -9 -22t-21 -8h-149q15 -33 15 -83q0 -70 -59 -123q22 13 52 13q40 1 98 -21t83 -22 q67 0 94 55q9 18 29 18z"/>
<glyph glyph-name="currency" horiz-adv-x="467" unicode="¤" d="M235 187q53 0 85 36t32 89t-32 89t-85 36q-51 -1 -85 -37t-34 -88t34 -88t85 -37zM235 126q-62 0 -108 35l-46 -46q-10 -10 -22 -10q-13 0 -21 9t-9 22q0 13 10 23l45 47q-31 47 -31 106q0 56 32 108l-47 48q-9 10 -9 22q1 13 9 22t21 9q12 0 22 -10l46 -48q52 35 108 35 q60 0 106 -33l45 46q9 10 22 10t22 -9t9 -22q0 -12 -11 -23l-45 -46q32 -47 32 -109q0 -57 -32 -107l45 -46q11 -13 11 -23q0 -13 -9 -22t-22 -9t-22 10l-44 45q-45 -34 -107 -34z"/>
<glyph glyph-name="yen" d="M435 190q0 -11 -8 -19t-19 -8h-115v-137q0 -14 -10 -24t-24 -10t-24 10t-10 24v137h-115q-11 0 -19 8t-8 19t8 19t19 8h115v47h-115q-11 0 -19 8t-8 19t8 19t19 8h112l-198 311q-5 8 -5 18q0 14 10 24t24 10q19 0 29 -16l177 -284l177 284q10 16 29 16q14 0 24 -10 t10 -24q0 -10 -5 -18l-198 -311h112q11 0 19 -8t8 -19t-8 -19t-19 -8h-115v-47h115q11 0 19 -8t8 -19z" unicode="¥"/>
<glyph glyph-name="brokenbar" horiz-adv-x="216" unicode="¦" d="M141 260v-387q1 -13 -9 -23t-24 -10t-24 10t-9 23v387q-1 14 9 24t24 9q14 1 24 -9t9 -24zM141 775v-386q1 -13 -9 -23t-24 -10t-24 10t-9 23v386q-1 13 9 23t24 10t24 -10t9 -23z"/>
<glyph glyph-name="section" horiz-adv-x="504" unicode="§" d="M36 279q0 75 54 134q-39 47 -39 110q0 72 52 118t156 46q125 0 197 -90q7 -9 7 -19q0 -13 -9 -22t-22 -9t-24 11q-68 68 -149 68q-72 0 -107 -29t-35 -74q0 -47 36 -77q35 -30 87 -44q52 -16 104 -34t87 -59q36 -40 36 -103q0 -74 -54 -133q39 -47 39 -110 q0 -72 -52 -118t-156 -46q-125 0 -197 90q-7 9 -7 19q0 13 9 22t22 9t24 -11q68 -68 149 -68q72 0 107 29t35 74q0 47 -36 76t-88 45t-102 34q-52 18 -88 58t-36 103zM401 206q-1 40 -31 68t-66 42t-88 30q-51 17 -74 30q-40 -34 -40 -97q0 -39 30 -67t67 -42q37 -13 88 -30 t74 -30q40 34 40 96z"/>
<glyph glyph-name="dieresis" horiz-adv-x="317" unicode="¨" d="M237 534q-36 0 -36 37q0 38 36 38t36 -38q0 -37 -36 -37zM80 534q-36 0 -36 37q0 38 36 38t36 -38q0 -37 -36 -37z"/>
<glyph glyph-name="copyright" horiz-adv-x="801" unicode="©" d="M400 38q293 0 293 298q0 299 -293 299q-145 1 -217 -73t-72 -226t72 -225t217 -73zM400 687q170 1 259 -87t89 -264q0 -174 -90 -262t-258 -88q-167 0 -257 88t-90 262q0 175 90 263t257 88zM397 155q-157 0 -157 182q0 183 157 183q44 0 78 -18t46 -41q3 -6 3 -12 q0 -11 -7 -18t-18 -7t-20 9q-37 37 -82 37q-52 0 -77 -30t-25 -103q0 -132 102 -132q52 0 82 30q10 10 20 10q11 1 18 -7t7 -18q0 -8 -6 -16q-39 -49 -121 -49z"/>
<glyph glyph-name="ordfeminine" horiz-adv-x="342" unicode="ª" d="M167 398q40 0 66 22t26 62v37h-89q-80 0 -80 -60q0 -61 77 -61zM175 648q-40 0 -71 -33q-7 -7 -16 -7q-8 0 -14 6t-6 14q0 6 5 14q33 45 102 45q65 0 97 -29t31 -79v-192q-1 -9 -7 -15t-15 -7q-9 1 -15 7t-7 15v19q-29 -45 -92 -45q-57 0 -89 26t-32 72q0 49 34 73t90 24 h89v24q0 68 -84 68zM321 288q1 -8 -5 -14t-14 -5h-262q-8 -1 -14 5t-5 14q-1 8 5 14t14 5h262q8 1 14 -5t5 -14z"/>
<glyph glyph-name="guillemotleft" horiz-adv-x="522" unicode="«" d="M232 212q0 9 7 18l163 192q8 9 18 9t17 -7t7 -17q0 -9 -7 -17l-153 -178l153 -178q7 -8 7 -17q0 -10 -7 -17t-17 -7t-18 9l-163 192q-7 9 -7 18zM78 212q0 9 7 18l163 192q8 9 18 9t17 -7t7 -17q0 -9 -7 -17l-153 -178l153 -178q7 -8 7 -17q0 -10 -7 -17t-17 -7t-18 9 l-163 192q-7 9 -7 18z"/>
<glyph glyph-name="logicalnot" horiz-adv-x="563" unicode="¬" d="M527 279v-257q-1 -14 -9 -22t-21 -8t-21 8t-9 22v233h-404q-11 0 -19 8t-8 19t8 19t19 8h434q13 -1 21 -9t9 -21z"/>
<glyph glyph-name="registered" horiz-adv-x="377" unicode="®" d="M156 540h42q24 0 24 26q0 25 -24 25h-42v-51zM179 518h-23v-49q0 -13 -13 -13t-13 13v131q0 13 13 13h55q22 1 36 -13t14 -34t-12 -34t-29 -14l33 -41q3 -4 3 -8q0 -13 -12 -13q-7 0 -11 6zM188 406q120 0 120 129q0 67 -30 97t-90 31q-120 0 -120 -128q0 -129 120 -129z M187 687q149 0 149 -152q0 -153 -149 -153q-71 0 -109 38t-38 115q0 76 38 114t109 38z"/>
<glyph glyph-name="macron" horiz-adv-x="382" unicode="¯" d="M309 562q1 -10 -7 -18t-18 -7h-186q-10 -1 -18 7t-7 18q-1 10 7 18t18 7h186q10 1 18 -7t7 -18z"/>
<glyph glyph-name="degree" horiz-adv-x="358" unicode="°" d="M277 550q-1 41 -29 70t-70 29t-70 -29t-28 -70q0 -42 28 -70t70 -28t70 28t29 70zM315 550q0 -56 -40 -96t-97 -40q-56 0 -96 40t-40 96t40 96t96 41q57 -1 97 -41t40 -96z"/>
<glyph glyph-name="plusminus" horiz-adv-x="454" unicode="±" d="M454 27q0 -11 -8 -19t-19 -8h-400q-11 0 -19 8t-8 19t8 19t19 8h400q11 0 19 -8t8 -19zM454 307q0 -11 -8 -19t-19 -8h-171v-171q0 -13 -8 -21t-21 -8t-21 8t-8 21v171h-171q-11 0 -19 8t-8 19t8 19t19 8h171v170q0 12 8 20t21 9q13 -1 21 -9t8 -20v-170h171q11 0 19 -8 t8 -19z"/>
<glyph glyph-name="twosuperior" horiz-adv-x="266" unicode="²" d="M35 677q22 53 97 53q50 0 79 -24t29 -65q0 -32 -25 -59q-25 -28 -55 -42t-56 -32q-25 -18 -25 -35h135q10 0 17 -7t7 -17t-7 -17t-17 -7h-167q-10 0 -17 7t-7 17q0 39 26 69q27 30 57 43q30 15 56 35t26 45q0 18 -14 30t-42 12q-37 0 -57 -29q-8 -10 -19 -10q-10 0 -16 6 t-7 17q0 5 2 10z"/>
<glyph glyph-name="threesuperior" horiz-adv-x="259" unicode="³" d="M212 681l-68 -70q46 0 68 -27t22 -65q0 -46 -29 -73t-87 -27q-70 0 -101 58q-4 8 -4 14q1 11 7 17t16 6q13 0 21 -13q20 -34 61 -34q63 0 63 52q0 48 -60 48h-22q-10 0 -17 7t-7 17q0 9 6 16l62 67h-93q-10 0 -18 7t-7 18q-1 11 7 18t18 7h144q10 0 18 -7t7 -18 q0 -12 -7 -18z"/>
<glyph glyph-name="acute" horiz-adv-x="370" unicode="´" d="M121 520q-9 7 -9 16q0 7 6 14l89 108q7 10 17 10t21 -10q11 -11 11 -21q0 -9 -8 -17l-97 -98q-8 -8 -16 -8z"/>
<glyph glyph-name="mu" horiz-adv-x="482" unicode="µ" d="M119 430v-261q0 -57 26 -89t96 -32t96 32t26 89v261q-1 12 9 22t24 10q13 0 22 -10t9 -22v-261q0 -83 -40 -133t-146 -49q-78 0 -122 46v-206q1 -13 -9 -23t-23 -9q-13 -1 -23 9t-9 23v603q-1 14 9 23t23 9t23 -10t9 -22z"/>
<glyph glyph-name="paragraph" horiz-adv-x="513" unicode="¶" d="M344 613h-42v-402q0 -107 -65 -172q59 31 83 94t24 166v314zM465 643q-1 -13 -9 -21t-21 -9h-27v-314q0 -165 -72 -249t-209 -83q-46 0 -65 9q-20 8 -20 29q0 13 9 22t22 9q5 0 11 -2q24 -7 43 -7q55 0 83 46t28 123v152h-33q-67 0 -114 48t-47 115t47 115t114 47h230 q13 -1 21 -9t9 -21z"/>
<glyph glyph-name="periodcentered" horiz-adv-x="164" unicode="·" d="M81 253q-47 0 -47 47q0 48 47 48t47 -48q0 -47 -47 -47z"/>
<glyph glyph-name="cedilla" horiz-adv-x="315" unicode="¸" d="M244 -139q0 -85 -97 -85q-38 0 -64 18q-8 6 -8 15q-1 7 5 13t13 6q6 0 12 -3q20 -10 42 -10q29 -1 41 9t12 37q0 46 -44 46q-8 0 -22 -2t-19 -2q-19 0 -18 22l3 75h35l-5 -59q18 2 27 2q87 0 87 -82z"/>
<glyph glyph-name="onesuperior" horiz-adv-x="196" unicode="¹" d="M99 656l-30 -21q-9 -7 -18 -7t-17 8t-8 17q0 13 12 21l72 48q7 5 15 5q11 1 19 -7t7 -19v-253q1 -10 -7 -18t-19 -8t-19 8t-7 18v208z"/>
<glyph glyph-name="ordmasculine" horiz-adv-x="348" unicode="º" d="M174 687q143 0 143 -163t-143 -163t-143 163t143 163zM329 288q1 -8 -5 -14t-14 -5h-272q-8 -1 -14 5t-5 14q-1 8 5 14t14 5h272q8 1 14 -5t5 -14zM174 400q98 0 98 124t-98 124t-98 -124t98 -124z"/>
<glyph glyph-name="guillemotright" horiz-adv-x="522" unicode="»" d="M290 212q0 -9 -7 -18l-163 -192q-8 -9 -18 -9t-17 7t-7 17q0 9 7 17l153 178l-153 178q-7 8 -7 17q0 10 7 17t17 7t18 -9l163 -192q7 -9 7 -18zM444 212q0 -9 -7 -18l-163 -192q-8 -9 -18 -9t-17 7t-7 17q0 9 7 17l153 178l-153 178q-7 8 -7 17q0 10 7 17t17 7t18 -9 l163 -192q7 -9 7 -18z"/>
<glyph glyph-name="onequarter" horiz-adv-x="492" unicode="¼" d="M89 29l246 636q5 16 24 16q11 0 19 -8t8 -19q0 -8 -2 -10l-245 -634q-4 -18 -25 -18q-11 0 -19 8t-8 19q0 6 2 10zM305 107h67v96zM424 107h16q10 0 17 -7t7 -17t-7 -17t-17 -7h-16v-41q0 -10 -8 -18t-18 -8t-18 8t-8 18v41h-111q-10 0 -17 7t-7 17q0 9 6 16l134 187 q9 11 21 11q10 1 18 -7t8 -19v-164zM101 613l-30 -21q-9 -7 -18 -7q-9 -1 -17 7t-8 18q0 13 12 21l72 48q7 5 15 5q11 0 19 -8t7 -18v-253q1 -11 -7 -19t-19 -7q-11 -1 -19 7t-7 19v208z"/>
<glyph glyph-name="onehalf" horiz-adv-x="527" unicode="½" d="M89 29l246 636q7 16 24 16q11 0 19 -8t8 -19q0 -8 -2 -10l-245 -634q-7 -18 -25 -18q-11 0 -19 8t-8 19q0 6 2 10zM296 252q22 53 97 53q50 1 79 -23t29 -66q0 -32 -25 -59q-26 -27 -56 -41t-55 -33q-25 -18 -25 -35h135q10 0 17 -7t7 -17t-7 -17t-17 -7h-167 q-10 0 -17 7t-7 17q0 38 26 68t56 44t57 34q26 20 26 46q-1 18 -15 30t-41 12q-37 0 -57 -29q-8 -10 -19 -10q-11 1 -17 7t-6 16q0 5 2 10zM101 613l-30 -21q-9 -7 -18 -7q-9 -1 -17 7t-8 18q0 13 12 21l72 48q7 5 15 5q11 0 19 -8t7 -18v-253q1 -11 -7 -19t-19 -7 q-11 -1 -19 7t-7 19v208z"/>
<glyph glyph-name="threequarters" horiz-adv-x="579" unicode="¾" d="M145 29l246 636q5 16 24 16q11 0 19 -8t8 -19q0 -8 -2 -10l-245 -634q-4 -18 -25 -18q-11 0 -19 8t-8 19q0 6 2 10zM222 638l-68 -70q46 0 68 -27t22 -65q0 -46 -29 -73t-87 -27q-70 0 -101 58q-4 8 -4 14q1 10 7 16t16 7q13 0 21 -13q20 -34 61 -34q63 0 63 52 q0 48 -60 48h-22q-10 0 -17 7t-7 17q0 8 6 16l62 67h-93q-10 -1 -18 7t-7 18q-1 10 7 18t18 7h144q10 1 18 -7t7 -18q0 -12 -7 -18zM361 107h67v96zM480 107h16q10 0 17 -7t7 -17t-7 -17t-17 -7h-16v-41q0 -10 -8 -18t-18 -8t-18 8t-8 18v41h-111q-10 0 -17 7t-7 17 q0 9 6 16l134 187q9 11 21 11q10 1 18 -7t8 -19v-164z"/>
<glyph glyph-name="questiondown" horiz-adv-x="461" unicode="¿" d="M256 468q47 0 47 -47q0 -48 -47 -48t-47 48q0 47 47 47zM276 302q32 -32 32 -85q0 -36 -22 -64q-22 -27 -52 -47t-61 -40t-53 -52t-21 -72q0 -54 35 -82t99 -28q60 0 94 30t34 90q-1 14 9 24t24 9q14 1 24 -9t9 -24q0 -84 -51 -132t-143 -47q-93 0 -145 44t-53 125 q0 50 21 88q22 38 52 62t60 42q30 20 52 40q21 20 21 43q0 19 -14 40q-8 12 -8 22q1 15 11 24t22 9q14 0 24 -10z"/>
<glyph glyph-name="Agrave" horiz-adv-x="613" unicode="À" d="M358 724q-7 -6 -14 -6l-16 8l-97 98q-8 8 -8 17q0 10 11 21q10 10 20 10t18 -10l89 -108q6 -8 6 -14q0 -9 -9 -16zM446 199h-279l-73 -183q-9 -24 -33 -24q-14 0 -24 10t-10 24q0 9 3 15l244 617q10 23 32 23q23 0 33 -23l244 -617q3 -7 3 -15q0 -14 -10 -24t-25 -10 q-24 0 -33 23zM425 261l-119 306l-118 -306h237z"/>
<glyph glyph-name="Aacute" horiz-adv-x="613" unicode="Á" d="M254 724q-9 7 -9 16q0 7 6 14l89 108q8 10 18 10t20 -10q11 -11 11 -21q0 -9 -8 -17l-97 -98q-8 -8 -16 -8zM446 199h-279l-73 -183q-9 -24 -33 -24q-14 0 -24 10t-10 24q0 9 3 15l244 617q10 23 32 23q23 0 33 -23l244 -617q3 -7 3 -15q0 -14 -10 -24t-25 -10 q-24 0 -33 23zM425 261l-119 306l-118 -306h237z"/>
<glyph glyph-name="Acircumflex" horiz-adv-x="613" unicode="Â" d="M387 725l-81 68l-81 -68q-6 -6 -16 -6t-17 7t-7 17q0 11 9 19l96 79q8 6 16 6t16 -6l96 -79q9 -8 9 -19q0 -10 -7 -17t-17 -7t-16 6zM446 199h-279l-73 -183q-9 -24 -33 -24q-14 0 -24 10t-10 24q0 9 3 15l244 617q10 23 32 23q23 0 33 -23l244 -617q3 -7 3 -15 q0 -14 -10 -24t-25 -10q-24 0 -33 23zM425 261l-119 306l-118 -306h237z"/>
<glyph glyph-name="Atilde" horiz-adv-x="613" unicode="Ã" d="M248 819q26 1 62 -19t56 -20q25 0 46 28q8 11 20 11q10 0 17 -7t7 -17q0 -6 -3 -12q-26 -52 -87 -52q-26 -1 -62 19t-56 20q-25 0 -46 -28q-8 -11 -20 -11q-10 0 -17 7t-7 17q0 6 3 12q26 52 87 52zM446 199h-279l-73 -183q-9 -24 -33 -24q-14 0 -24 10t-10 24q0 9 3 15 l244 617q10 23 32 23q23 0 33 -23l244 -617q3 -7 3 -15q0 -14 -10 -24t-25 -10q-24 0 -33 23zM425 261l-119 306l-118 -306h237z"/>
<glyph glyph-name="Adieresis" horiz-adv-x="613" unicode="Ä" d="M385 741q-36 0 -36 37q0 38 36 38t36 -38q0 -37 -36 -37zM228 741q-36 0 -36 37q0 38 36 38t36 -38q0 -37 -36 -37zM446 199h-279l-73 -183q-9 -24 -33 -24q-14 0 -24 10t-10 24q0 9 3 15l244 617q10 23 32 23q23 0 33 -23l244 -617q3 -7 3 -15q0 -14 -10 -24t-25 -10 q-24 0 -33 23zM425 261l-119 306l-118 -306h237z"/>
<glyph glyph-name="Aring" horiz-adv-x="613" unicode="Å" d="M306 861q-34 -1 -48 -15t-14 -45q0 -30 14 -45t48 -15t48 15t14 45q0 31 -14 45t-48 15zM306 703q-104 0 -104 98t104 98t104 -98t-104 -98zM446 199h-279l-73 -183q-9 -24 -33 -24q-14 0 -24 10t-10 24q0 9 3 15l244 617q10 23 32 23q23 0 33 -23l244 -617q3 -7 3 -15 q0 -14 -10 -24t-25 -10q-24 0 -33 23zM425 261l-119 306l-118 -306h237z"/>
<glyph glyph-name="AE" horiz-adv-x="841" unicode="Æ" d="M228 261h175v280zM769 0h-332q-14 0 -24 10t-10 24v165h-211l-119 -191q-9 -16 -29 -16q-14 0 -24 10t-11 25q0 9 7 20l392 610q11 16 29 16h321q13 0 22 -9t9 -22t-9 -22t-22 -9h-287v-241h220q13 0 22 -9t9 -22t-9 -22t-22 -9h-220v-246h298q13 0 22 -9t9 -22t-9 -22 t-22 -9z"/>
<glyph glyph-name="Ccedilla" horiz-adv-x="631" unicode="Ç" d="M441 -139q0 -85 -97 -85q-38 0 -64 18q-8 6 -8 15q0 7 6 13t12 6t12 -3q20 -10 42 -10q28 -1 40 9t13 37q0 46 -44 46q-9 0 -23 -2t-18 -2q-19 0 -18 22l2 65q-252 30 -252 346q0 174 82 262t230 89q71 -1 130 -29t95 -77q7 -10 7 -21q0 -14 -9 -23t-23 -9q-16 0 -26 13 q-28 37 -74 61t-100 23q-118 0 -180 -72t-62 -217q0 -152 61 -220t181 -68q52 0 99 21t75 61q9 13 26 13q14 1 23 -9t9 -23q0 -10 -6 -19q-33 -48 -95 -77t-131 -29l-25 1l-4 -46q18 2 27 2q87 0 87 -82z"/>
<glyph glyph-name="Egrave" d="M337 724q-7 -6 -14 -6l-16 8l-97 98q-8 8 -8 17q0 10 11 21q11 10 21 10t17 -10l89 -108q6 -8 6 -14q0 -9 -9 -16zM446 0h-332q-14 0 -24 10t-10 24v605q0 14 10 24t24 10h321q13 0 22 -9t9 -22t-9 -22t-22 -9h-287v-241h220q13 0 22 -9t9 -22t-9 -22t-22 -9h-220v-246 h298q13 0 22 -9t9 -22t-9 -22t-22 -9z" unicode="È"/>
<glyph glyph-name="Eacute" d="M227 724q-9 7 -9 16q0 7 6 14l89 108q7 10 17 10t21 -10q11 -11 11 -21q0 -9 -8 -17l-97 -98q-8 -8 -16 -8zM446 0h-332q-14 0 -24 10t-10 24v605q0 14 10 24t24 10h321q13 0 22 -9t9 -22t-9 -22t-22 -9h-287v-241h220q13 0 22 -9t9 -22t-9 -22t-22 -9h-220v-246h298 q13 0 22 -9t9 -22t-9 -22t-22 -9z" unicode="É"/>
<glyph glyph-name="Ecircumflex" d="M367 725l-81 68l-81 -68q-6 -6 -16 -6t-17 7t-7 17q0 11 9 19l96 79q8 6 16 6t16 -6l96 -79q9 -8 9 -19q0 -10 -7 -17t-17 -7t-16 6zM446 0h-332q-14 0 -24 10t-10 24v605q0 14 10 24t24 10h321q13 0 22 -9t9 -22t-9 -22t-22 -9h-287v-241h220q13 0 22 -9t9 -22t-9 -22 t-22 -9h-220v-246h298q13 0 22 -9t9 -22t-9 -22t-22 -9z" unicode="Ê"/>
<glyph glyph-name="Edieresis" d="M362 741q-36 0 -36 37q0 38 36 38t36 -38q0 -37 -36 -37zM205 741q-36 0 -36 37q0 38 36 38t36 -38q0 -37 -36 -37zM446 0h-332q-14 0 -24 10t-10 24v605q0 14 10 24t24 10h321q13 0 22 -9t9 -22t-9 -22t-22 -9h-287v-241h220q13 0 22 -9t9 -22t-9 -22t-22 -9h-220v-246 h298q13 0 22 -9t9 -22t-9 -22t-22 -9z" unicode="Ë"/>
<glyph glyph-name="Igrave" horiz-adv-x="228" unicode="Ì" d="M166 724q-7 -6 -14 -6l-16 8l-97 98q-8 8 -8 17q0 10 11 21q10 10 20 10t18 -10l89 -108q6 -8 6 -14q0 -9 -9 -16zM148 647v-621q0 -14 -10 -24t-24 -10t-24 10t-10 24v621q0 14 10 24t24 10t24 -10t10 -24z"/>
<glyph glyph-name="Iacute" horiz-adv-x="228" unicode="Í" d="M62 724q-9 7 -9 16q0 7 6 14l89 108q8 10 18 10t20 -10q11 -11 11 -21q0 -9 -8 -17l-97 -98q-8 -8 -16 -8zM148 647v-621q0 -14 -10 -24t-24 -10t-24 10t-10 24v621q0 14 10 24t24 10t24 -10t10 -24z"/>
<glyph glyph-name="Icircumflex" horiz-adv-x="228" unicode="Î" d="M196 725l-81 68l-81 -68q-6 -6 -16 -6t-17 7t-7 17q0 11 9 19l96 79q8 6 16 6t16 -6l96 -79q9 -8 9 -19q0 -10 -7 -17t-17 -7t-16 6zM148 647v-621q0 -14 -10 -24t-24 -10t-24 10t-10 24v621q0 14 10 24t24 10t24 -10t10 -24z"/>
<glyph glyph-name="Idieresis" horiz-adv-x="228" unicode="Ï" d="M193 741q-36 0 -36 37q0 38 36 38t36 -38q0 -37 -36 -37zM36 741q-36 0 -36 37q0 38 36 38t36 -38q0 -37 -36 -37zM148 647v-621q0 -14 -10 -24t-24 -10t-24 10t-10 24v621q0 14 10 24t24 10t24 -10t10 -24z"/>
<glyph glyph-name="Eth" horiz-adv-x="609" unicode="Ð" d="M373 348q1 -13 -9 -22t-23 -9h-193v-253h107q119 0 181 62t61 210q0 148 -62 210t-180 63h-107v-230h193q13 0 23 -9t9 -22zM114 673h141q151 1 231 -79t79 -258q1 -178 -79 -257t-231 -79h-141q-14 0 -24 10t-10 24v283h-31q-13 0 -22 9t-9 22t9 22t22 9h31v260 q0 14 10 24t24 10z"/>
<glyph glyph-name="Ntilde" horiz-adv-x="620" unicode="Ñ" d="M260 819q26 1 62 -19t56 -20q25 0 46 28q8 11 20 11q10 0 17 -7t7 -17q0 -6 -3 -12q-26 -52 -87 -52q-26 -1 -62 19t-56 20q-25 0 -46 -28q-8 -11 -20 -11q-10 0 -17 7t-7 17q0 6 3 12q26 52 87 52zM517 681q13 1 23 -9t10 -24v-622q0 -14 -10 -24t-24 -10q-17 0 -28 14 l-352 531v-512q0 -13 -10 -23t-23 -10t-23 10t-10 23v623q0 14 10 24t23 9q17 0 27 -14l354 -532v513q0 14 10 24t23 9z"/>
<glyph glyph-name="Ograve" horiz-adv-x="712" unicode="Ò" d="M420 724q-7 -6 -14 -6l-16 8l-97 98q-8 8 -8 17q0 10 11 21q10 10 20 10t18 -10l89 -108q6 -8 6 -14q0 -9 -9 -16zM356 625q-118 0 -180 -72t-62 -217q0 -144 62 -216t180 -72t180 72t62 216q0 145 -62 217t-180 72zM356 -14q-148 0 -230 88t-82 262t82 262t230 89 q148 -1 230 -89t82 -262t-82 -262t-230 -88z"/>
<glyph glyph-name="Oacute" horiz-adv-x="712" unicode="Ó" d="M301 724q-9 7 -9 16q0 7 6 14l89 108q7 10 17 10t21 -10q11 -11 11 -21q0 -9 -8 -17l-97 -98q-8 -8 -16 -8zM356 625q-118 0 -180 -72t-62 -217q0 -144 62 -216t180 -72t180 72t62 216q0 145 -62 217t-180 72zM356 -14q-148 0 -230 88t-82 262t82 262t230 89 q148 -1 230 -89t82 -262t-82 -262t-230 -88z"/>
<glyph glyph-name="Ocircumflex" horiz-adv-x="712" unicode="Ô" d="M440 725l-81 68l-81 -68q-6 -6 -16 -6t-17 7t-7 17q0 11 9 19l96 79q8 6 16 6t16 -6l96 -79q9 -8 9 -19q0 -10 -7 -17t-17 -7t-16 6zM356 625q-118 0 -180 -72t-62 -217q0 -144 62 -216t180 -72t180 72t62 216q0 145 -62 217t-180 72zM356 -14q-148 0 -230 88t-82 262 t82 262t230 89q148 -1 230 -89t82 -262t-82 -262t-230 -88z"/>
<glyph glyph-name="Otilde" horiz-adv-x="712" unicode="Õ" d="M297 819q25 1 62 -19t56 -20q25 0 46 28q8 11 20 11q10 0 17 -7t7 -17q0 -6 -3 -12q-26 -52 -87 -52q-26 -1 -62 19t-56 20q-25 0 -46 -28q-8 -11 -20 -11q-10 0 -17 7t-7 17q0 6 3 12q26 52 87 52zM356 625q-118 0 -180 -72t-62 -217q0 -144 62 -216t180 -72t180 72 t62 216q0 145 -62 217t-180 72zM356 -14q-148 0 -230 88t-82 262t82 262t230 89q148 -1 230 -89t82 -262t-82 -262t-230 -88z"/>
<glyph glyph-name="Odieresis" horiz-adv-x="713" unicode="Ö" d="M435 741q-36 0 -36 37q0 38 36 38t36 -38q0 -37 -36 -37zM278 741q-36 0 -36 37q0 38 36 38t36 -38q0 -37 -36 -37zM356 625q-118 0 -180 -72t-62 -217q0 -144 62 -216t180 -72t180 72t62 216q0 145 -62 217t-180 72zM356 -14q-148 0 -230 88t-82 262t82 262t230 89 q148 -1 230 -89t82 -262t-82 -262t-230 -88z"/>
<glyph glyph-name="multiply" horiz-adv-x="354" unicode="×" d="M177 257l128 125q10 10 21 10q12 0 20 -8t8 -20q0 -11 -8 -19l-131 -127l131 -127q8 -8 8 -19q0 -12 -8 -20t-20 -8q-11 0 -21 10l-128 125l-128 -125q-10 -10 -21 -10q-12 0 -20 8t-8 20q0 11 8 19l131 127l-131 127q-8 8 -8 19q0 12 8 20t20 8q11 0 21 -10z"/>
<glyph glyph-name="Oslash" horiz-adv-x="712" unicode="Ø" d="M356 48q118 0 180 72t62 216q0 127 -50 200l-347 -440q57 -48 155 -48zM356 625q-118 0 -180 -72t-62 -217q0 -128 51 -201l347 441q-59 49 -156 49zM356 -14q-119 0 -196 57l-47 -59q-8 -10 -20 -10q-11 0 -19 8t-8 19q0 9 5 15l50 64q-77 89 -77 256q0 174 82 262 t230 89q120 0 197 -59l46 58q8 10 20 10q11 0 19 -8t8 -19q0 -9 -5 -15l-49 -62q76 -90 76 -256q0 -174 -82 -262t-230 -88z"/>
<glyph glyph-name="Ugrave" horiz-adv-x="624" unicode="Ù" d="M375 724q-7 -6 -14 -6l-16 8l-97 98q-8 8 -8 17q0 10 11 21q11 10 21 10t17 -10l89 -108q6 -8 6 -14q0 -9 -9 -16zM315 -14q-235 0 -235 219v442q0 14 10 24t24 10t24 -10t10 -24v-442q0 -33 7 -59t25 -48q18 -24 51 -36q34 -12 84 -12q94 0 130 42t36 113v442 q0 14 10 24t24 10t24 -10t10 -24v-442q0 -219 -234 -219z"/>
<glyph glyph-name="Uacute" horiz-adv-x="624" unicode="Ú" d="M268 724q-9 7 -9 16q0 7 6 14l89 108q8 10 18 10t20 -10q11 -11 11 -21q0 -9 -8 -17l-97 -98q-8 -8 -16 -8zM315 -14q-235 0 -235 219v442q0 14 10 24t24 10t24 -10t10 -24v-442q0 -33 7 -59t25 -48q18 -24 51 -36q34 -12 84 -12q94 0 130 42t36 113v442q0 14 10 24 t24 10t24 -10t10 -24v-442q0 -219 -234 -219z"/>
<glyph glyph-name="Ucircumflex" horiz-adv-x="624" unicode="Û" d="M396 725l-81 68l-81 -68q-6 -6 -16 -6t-17 7t-7 17q0 11 9 19l96 79q8 6 16 6t16 -6l96 -79q9 -8 9 -19q0 -10 -7 -17t-17 -7t-16 6zM315 -14q-235 0 -235 219v442q0 14 10 24t24 10t24 -10t10 -24v-442q0 -33 7 -59t25 -48q18 -24 51 -36q34 -12 84 -12q94 0 130 42 t36 113v442q0 14 10 24t24 10t24 -10t10 -24v-442q0 -219 -234 -219z"/>
<glyph glyph-name="Udieresis" horiz-adv-x="624" unicode="Ü" d="M394 741q-36 0 -36 37q0 38 36 38t36 -38q0 -37 -36 -37zM237 741q-36 0 -36 37q0 38 36 38t36 -38q0 -37 -36 -37zM315 -14q-235 0 -235 219v442q0 14 10 24t24 10t24 -10t10 -24v-442q0 -33 7 -59t25 -48q18 -24 51 -36q34 -12 84 -12q94 0 130 42t36 113v442 q0 14 10 24t24 10t24 -10t10 -24v-442q0 -219 -234 -219z"/>
<glyph glyph-name="Yacute" d="M216 724q-9 7 -9 16q0 7 6 14l89 108q8 10 18 10t20 -10q11 -11 11 -21q0 -9 -8 -17l-97 -98q-8 -8 -16 -8zM259 -8q-14 0 -24 10t-10 24v287l-201 316q-5 8 -5 18q0 14 10 24t24 10q19 0 29 -16l177 -284l177 284q10 16 29 16q14 0 24 -10t10 -24q0 -10 -5 -18 l-201 -316v-287q0 -14 -10 -24t-24 -10z" unicode="Ý"/>
<glyph glyph-name="Thorn" horiz-adv-x="544" unicode="Þ" d="M148 483v-267h155q62 0 97 35t35 99q1 65 -35 99t-97 34h-155zM148 154v-128q0 -14 -10 -24t-24 -10t-24 10t-10 24v621q0 14 10 24t24 10t24 -10t10 -24v-102h165q85 1 138 -49t53 -146t-53 -146t-138 -50h-165z"/>
<glyph glyph-name="germandbls" horiz-adv-x="547" unicode="ß" d="M234 685q64 1 110 -37t45 -94q0 -39 -23 -71q-23 -31 -51 -49t-51 -41t-23 -47q0 -29 27 -48q28 -20 66 -32t77 -27t66 -45t27 -74q0 -64 -48 -98t-122 -34q-57 0 -103 22t-68 50q-7 10 -7 19q0 13 8 21t21 8q12 0 22 -10q49 -49 127 -49q46 0 76 17t30 54q0 28 -27 46 t-66 32q-39 12 -77 27t-66 45q-27 30 -27 76q0 29 15 53t37 40q22 15 44 31t37 37t15 47q1 29 -25 50t-66 21q-105 0 -105 -112v-489q1 -14 -9 -23t-23 -9t-23 9t-9 23v489q-1 74 41 123t128 49z"/>
<glyph glyph-name="agrave" horiz-adv-x="467" unicode="à" d="M297 520q-7 -6 -14 -6l-16 8l-97 98q-8 8 -8 17q0 10 11 21q11 10 21 10t17 -10l89 -108q6 -8 6 -14q0 -9 -9 -16zM213 45q57 0 97 34t40 94v42h-141q-51 1 -81 -21t-29 -64q0 -85 114 -85zM232 408q-71 0 -116 -51q-13 -14 -26 -14q-12 1 -20 9t-9 20q0 9 5 17 q50 79 166 79q86 0 133 -46t47 -124v-275q0 -13 -9 -22t-22 -9t-22 9t-9 22v36q-18 -34 -57 -53t-86 -19q-81 -1 -127 37t-46 106q0 66 47 104t128 37h141v27q0 50 -32 80t-86 30z"/>
<glyph glyph-name="aacute" horiz-adv-x="467" unicode="á" d="M177 520q-9 7 -9 16q0 7 6 14l89 108q7 10 17 10t21 -10q11 -11 11 -21q0 -9 -8 -17l-97 -98q-8 -8 -16 -8zM213 45q57 0 97 34t40 94v42h-141q-51 1 -81 -21t-29 -64q0 -85 114 -85zM232 408q-71 0 -116 -51q-13 -14 -26 -14q-12 1 -20 9t-9 20q0 9 5 17q50 79 166 79 q86 0 133 -46t47 -124v-275q0 -13 -9 -22t-22 -9t-22 9t-9 22v36q-18 -34 -57 -53t-86 -19q-81 -1 -127 37t-46 106q0 66 47 104t128 37h141v27q0 50 -32 80t-86 30z"/>
<glyph glyph-name="acircumflex" horiz-adv-x="467" unicode="â" d="M314 528l-81 68l-81 -68q-6 -6 -16 -6t-17 7t-7 17q0 12 9 19l96 79q8 6 16 6t16 -6l96 -79q9 -7 9 -19q0 -10 -7 -17t-17 -7t-16 6zM213 45q57 0 97 34t40 94v42h-141q-51 1 -81 -21t-29 -64q0 -85 114 -85zM232 408q-71 0 -116 -51q-13 -14 -26 -14q-12 1 -20 9t-9 20 q0 9 5 17q50 79 166 79q86 0 133 -46t47 -124v-275q0 -13 -9 -22t-22 -9t-22 9t-9 22v36q-18 -34 -57 -53t-86 -19q-81 -1 -127 37t-46 106q0 66 47 104t128 37h141v27q0 50 -32 80t-86 30z"/>
<glyph glyph-name="atilde" horiz-adv-x="467" unicode="ã" d="M177 617q25 1 62 -19t56 -20q25 0 46 28q8 11 20 11q10 0 17 -7t7 -17q0 -6 -3 -12q-26 -52 -87 -52q-26 -1 -62 19t-56 20q-25 0 -46 -28q-8 -11 -20 -11q-10 0 -17 7t-7 17q0 6 3 12q26 52 87 52zM213 45q57 0 97 34t40 94v42h-141q-51 1 -81 -21t-29 -64 q0 -85 114 -85zM232 408q-71 0 -116 -51q-13 -14 -26 -14q-12 1 -20 9t-9 20q0 9 5 17q50 79 166 79q86 0 133 -46t47 -124v-275q0 -13 -9 -22t-22 -9t-22 9t-9 22v36q-18 -34 -57 -53t-86 -19q-81 -1 -127 37t-46 106q0 66 47 104t128 37h141v27q0 50 -32 80t-86 30z"/>
<glyph glyph-name="adieresis" horiz-adv-x="467" unicode="ä" d="M319 534q-36 0 -36 37q0 38 36 38t36 -38q0 -37 -36 -37zM162 534q-36 0 -36 37q0 38 36 38t36 -38q0 -37 -36 -37zM213 45q57 0 97 34t40 94v42h-141q-51 1 -81 -21t-29 -64q0 -85 114 -85zM232 408q-71 0 -116 -51q-13 -14 -26 -14q-12 1 -20 9t-9 20q0 9 5 17 q50 79 166 79q86 0 133 -46t47 -124v-275q0 -13 -9 -22t-22 -9t-22 9t-9 22v36q-18 -34 -57 -53t-86 -19q-81 -1 -127 37t-46 106q0 66 47 104t128 37h141v27q0 50 -32 80t-86 30z"/>
<glyph glyph-name="aring" horiz-adv-x="467" unicode="å" d="M241 660q-34 0 -48 -14t-14 -46q1 -30 15 -45t47 -15t47 15t15 45q0 32 -14 46t-48 14zM241 502q-104 0 -104 98t104 98t104 -98t-104 -98zM213 45q57 0 97 34t40 94v42h-141q-51 1 -81 -21t-29 -64q0 -85 114 -85zM232 408q-71 0 -116 -51q-13 -14 -26 -14q-12 1 -20 9 t-9 20q0 9 5 17q50 79 166 79q86 0 133 -46t47 -124v-275q0 -13 -9 -22t-22 -9t-22 9t-9 22v36q-18 -34 -57 -53t-86 -19q-81 -1 -127 37t-46 106q0 66 47 104t128 37h141v27q0 50 -32 80t-86 30z"/>
<glyph glyph-name="ae" horiz-adv-x="778" unicode="æ" d="M681 267q0 143 -128 143q-64 0 -100 -38t-41 -105h269zM213 45q57 0 97 34t40 94v38h-141q-110 0 -110 -81q0 -85 114 -85zM232 408q-39 0 -64 -12t-52 -39q-13 -14 -26 -14q-12 1 -20 9t-9 20q0 9 5 17q50 79 166 79q115 0 158 -80q52 80 163 80q57 0 97 -20t59 -52 t27 -62t8 -59q0 -15 -1 -23t-4 -19t-12 -17t-23 -5h-292q0 -75 40 -120t111 -45q63 0 120 43q9 6 18 6q13 -1 21 -9t8 -20t-11 -23q-56 -56 -156 -56q-141 0 -179 99q-50 -99 -177 -99q-81 -1 -127 37t-46 106q0 65 46 101t129 36h141v31q0 50 -32 80t-86 30z"/>
<glyph glyph-name="ccedilla" horiz-adv-x="441" unicode="ç" d="M344 -139q0 -85 -97 -85q-38 0 -64 18q-8 6 -8 15q-1 7 5 13t13 6q6 0 12 -3q20 -10 42 -10q29 -1 41 9t12 37q0 46 -44 46q-8 0 -22 -2t-19 -2q-19 0 -18 22l2 65q-164 24 -164 238q-1 120 53 180t153 60q58 0 97 -22t57 -47q7 -10 7 -19q0 -13 -8 -21t-21 -8t-24 12 q-41 47 -108 47q-141 0 -141 -182q0 -183 141 -183q58 0 116 43q10 7 19 7q12 -1 20 -9t9 -20q0 -13 -13 -25q-66 -54 -158 -54l-4 -46q18 2 27 2q87 0 87 -82z"/>
<glyph glyph-name="egrave" horiz-adv-x="466" unicode="è" d="M303 520q-7 -6 -14 -6l-16 8l-97 98q-8 8 -8 17q0 10 11 21q11 10 21 10t17 -10l89 -108q6 -8 6 -14q0 -9 -9 -16zM369 265q0 145 -128 145q-64 0 -100 -38t-41 -107h269zM35 228q0 116 54 178t152 62q46 0 81 -14q36 -14 56 -35t32 -49t18 -50q4 -24 4 -47q0 -15 -1 -23 t-4 -19t-12 -17t-23 -5h-292q0 -75 40 -119t111 -44q63 0 120 43q9 6 18 6q13 -1 21 -9t8 -20t-11 -23q-56 -56 -156 -56q-103 -1 -159 59t-57 182z"/>
<glyph glyph-name="eacute" horiz-adv-x="466" unicode="é" d="M191 520q-9 7 -9 16q0 7 6 14l89 108q7 10 17 10t21 -10q11 -11 11 -21q0 -9 -8 -17l-97 -98q-8 -8 -16 -8zM369 265q0 145 -128 145q-64 0 -100 -38t-41 -107h269zM35 228q0 116 54 178t152 62q46 0 81 -14q36 -14 56 -35t32 -49t18 -50q4 -24 4 -47q0 -15 -1 -23 t-4 -19t-12 -17t-23 -5h-292q0 -75 40 -119t111 -44q63 0 120 43q9 6 18 6q13 -1 21 -9t8 -20t-11 -23q-56 -56 -156 -56q-103 -1 -159 59t-57 182z"/>
<glyph glyph-name="ecircumflex" horiz-adv-x="466" unicode="ê" d="M326 528l-81 68l-81 -68q-6 -6 -16 -6t-17 7t-7 17q0 12 9 19l96 79q8 6 16 6t16 -6l96 -79q9 -7 9 -19q0 -10 -7 -17t-17 -7t-16 6zM369 265q0 145 -128 145q-64 0 -100 -38t-41 -107h269zM35 228q0 116 54 178t152 62q46 0 81 -14q36 -14 56 -35t32 -49t18 -50 q4 -24 4 -47q0 -15 -1 -23t-4 -19t-12 -17t-23 -5h-292q0 -75 40 -119t111 -44q63 0 120 43q9 6 18 6q13 -1 21 -9t8 -20t-11 -23q-56 -56 -156 -56q-103 -1 -159 59t-57 182z"/>
<glyph glyph-name="edieresis" horiz-adv-x="466" unicode="ë" d="M323 534q-36 0 -36 37q0 38 36 38t36 -38q0 -37 -36 -37zM166 534q-36 0 -36 37q0 38 36 38t36 -38q0 -37 -36 -37zM369 265q0 145 -128 145q-64 0 -100 -38t-41 -107h269zM35 228q0 116 54 178t152 62q46 0 81 -14q36 -14 56 -35t32 -49t18 -50q4 -24 4 -47 q0 -15 -1 -23t-4 -19t-12 -17t-23 -5h-292q0 -75 40 -119t111 -44q63 0 120 43q9 6 18 6q13 -1 21 -9t8 -20t-11 -23q-56 -56 -156 -56q-103 -1 -159 59t-57 182z"/>
<glyph glyph-name="igrave" horiz-adv-x="193" unicode="ì" d="M149 520q-7 -6 -14 -6l-16 8l-97 98q-8 8 -8 17q0 10 11 21q11 10 21 10t17 -10l89 -108q6 -8 6 -14q0 -9 -9 -16zM128 430v-406q0 -14 -9 -23t-23 -9t-23 9t-9 23v406q0 14 9 23t23 9t23 -9t9 -23z"/>
<glyph glyph-name="iacute" horiz-adv-x="193" unicode="í" d="M53 520q-9 7 -9 16q0 7 6 14l89 108q7 10 17 10t21 -10q11 -11 11 -21q0 -9 -8 -17l-97 -98q-8 -8 -16 -8zM128 430v-406q0 -14 -9 -23t-23 -9t-23 9t-9 23v406q0 14 9 23t23 9t23 -9t9 -23z"/>
<glyph glyph-name="icircumflex" horiz-adv-x="193" unicode="î" d="M177 528l-81 68l-81 -68q-6 -6 -16 -6t-17 7t-7 17q0 12 9 19l96 79q8 6 16 6t16 -6l96 -79q9 -7 9 -19q0 -10 -7 -17t-17 -7t-16 6zM128 430v-406q0 -14 -9 -23t-23 -9t-23 9t-9 23v406q0 14 9 23t23 9t23 -9t9 -23z"/>
<glyph glyph-name="idieresis" horiz-adv-x="193" unicode="ï" d="M175 534q-36 0 -36 37q0 38 36 38t36 -38q0 -37 -36 -37zM18 534q-36 0 -36 37q0 38 36 38t36 -38q0 -37 -36 -37zM128 430v-406q0 -14 -9 -23t-23 -9t-23 9t-9 23v406q0 14 9 23t23 9t23 -9t9 -23z"/>
<glyph glyph-name="eth" horiz-adv-x="492" unicode="ð" d="M245 45q145 0 145 183q0 182 -145 182t-145 -182q0 -183 145 -183zM245 468q69 0 116 -31q-19 73 -66 122l-56 -38l-17 -5q-14 0 -22 8t-8 22q0 17 13 25l49 32q-24 21 -79 54q-16 9 -16 27q1 12 9 20t20 8q8 0 16 -4q47 -23 101 -72l44 28q8 5 17 5q14 -1 22 -9t8 -21 q0 -16 -13 -25l-37 -24q109 -138 109 -362q0 -120 -55 -180t-155 -61q-99 1 -155 61t-55 180q0 120 55 180t155 60z"/>
<glyph glyph-name="ntilde" horiz-adv-x="501" unicode="ñ" d="M196 617q26 1 62 -19t56 -20q25 0 46 28q8 11 20 11q10 0 17 -7t7 -17q0 -6 -3 -12q-26 -52 -87 -52q-26 -1 -62 19t-56 20q-25 0 -46 -28q-8 -11 -20 -11q-10 0 -17 7t-7 17q0 6 3 12q26 52 87 52zM262 468q184 0 184 -177v-267q0 -14 -9 -23t-23 -9t-23 9t-9 23v254 q0 65 -26 99t-94 34q-133 0 -133 -140v-247q1 -14 -9 -23t-23 -9t-23 9t-9 23v406q-1 14 9 23t23 9t23 -9t9 -23v-32q15 30 51 50t82 20z"/>
<glyph glyph-name="ograve" horiz-adv-x="490" unicode="ò" d="M317 520q-7 -6 -14 -6l-16 8l-97 98q-8 8 -8 17q0 10 11 21q11 10 21 10t17 -10l89 -108q6 -8 6 -14q0 -9 -9 -16zM245 45q145 0 145 183q0 182 -145 182t-145 -182q0 -183 145 -183zM245 468q100 0 155 -60t55 -180t-55 -180t-155 -61q-99 1 -155 61t-55 180 q0 120 55 180t155 60z"/>
<glyph glyph-name="oacute" horiz-adv-x="490" unicode="ó" d="M200 520q-9 7 -9 16q0 7 6 14l89 108q8 10 18 10t20 -10q11 -11 11 -21q0 -9 -8 -17l-97 -98q-8 -8 -16 -8zM245 45q145 0 145 183q0 182 -145 182t-145 -182q0 -183 145 -183zM245 468q100 0 155 -60t55 -180t-55 -180t-155 -61q-99 1 -155 61t-55 180q0 120 55 180 t155 60z"/>
<glyph glyph-name="ocircumflex" horiz-adv-x="490" unicode="ô" d="M330 528l-81 68l-81 -68q-6 -6 -16 -6t-17 7t-7 17q0 12 9 19l96 79q8 6 16 6t16 -6l96 -79q9 -7 9 -19q0 -10 -7 -17t-17 -7t-16 6zM245 45q145 0 145 183q0 182 -145 182t-145 -182q0 -183 145 -183zM245 468q100 0 155 -60t55 -180t-55 -180t-155 -61q-99 1 -155 61 t-55 180q0 120 55 180t155 60z"/>
<glyph glyph-name="otilde" horiz-adv-x="490" unicode="õ" d="M188 617q26 1 62 -19t56 -20q25 0 46 28q8 11 20 11q10 0 17 -7t7 -17q0 -6 -3 -12q-26 -52 -87 -52q-26 -1 -62 19t-56 20q-25 0 -46 -28q-8 -11 -20 -11q-10 0 -17 7t-7 17q0 6 3 12q26 52 87 52zM245 45q145 0 145 183q0 182 -145 182t-145 -182q0 -183 145 -183z M245 468q100 0 155 -60t55 -180t-55 -180t-155 -61q-99 1 -155 61t-55 180q0 120 55 180t155 60z"/>
<glyph glyph-name="odieresis" horiz-adv-x="490" unicode="ö" d="M328 534q-36 0 -36 37q0 38 36 38t36 -38q0 -37 -36 -37zM171 534q-36 0 -36 37q0 38 36 38t36 -38q0 -37 -36 -37zM245 45q145 0 145 183q0 182 -145 182t-145 -182q0 -183 145 -183zM245 468q100 0 155 -60t55 -180t-55 -180t-155 -61q-99 1 -155 61t-55 180 q0 120 55 180t155 60z"/>
<glyph glyph-name="divide" horiz-adv-x="454" unicode="÷" d="M454 219q0 -11 -8 -19t-19 -8h-400q-11 0 -19 8t-8 19t8 19t19 8h400q11 0 19 -8t8 -19zM194 340q0 14 10 24t23 10q14 0 24 -10t10 -24t-10 -24t-24 -9q-13 -1 -23 9t-10 24zM194 97q0 13 10 23t23 10q14 0 24 -10t10 -23q0 -14 -10 -24t-24 -10q-13 0 -23 10t-10 24z "/>
<glyph glyph-name="oslash" horiz-adv-x="490" unicode="ø" d="M100 228q0 -59 15 -98l229 244q-38 36 -99 36q-145 0 -145 -182zM245 45q145 0 145 183q0 61 -17 101l-230 -246q35 -38 102 -38zM245 468q89 0 142 -48l37 40q8 8 19 8t19 -8t7 -18q0 -11 -8 -19l-41 -43q35 -58 35 -152q0 -120 -55 -180t-155 -61q-92 0 -145 50 l-36 -38q-7 -7 -18 -7q-10 0 -18 8t-8 18q0 11 8 19l39 42q-32 58 -32 149q0 120 55 180t155 60z"/>
<glyph glyph-name="ugrave" horiz-adv-x="482" unicode="ù" d="M292 520q-7 -6 -14 -6l-16 8l-97 98q-8 8 -8 17q0 10 11 21q10 10 20 10t18 -10l89 -108q6 -8 6 -14q0 -9 -9 -16zM87 462q13 0 23 -10t9 -22v-261q0 -57 26 -89t96 -32t96 32t26 89v261q-1 12 9 22t24 10q13 0 22 -10t9 -22v-261q0 -83 -40 -133t-146 -49 q-106 -1 -146 49t-40 133v261q-1 14 9 23t23 9z"/>
<glyph glyph-name="uacute" horiz-adv-x="482" unicode="ú" d="M202 520q-9 7 -9 16q0 7 6 14l89 108q8 10 18 10t20 -10q11 -11 11 -21q0 -9 -8 -17l-97 -98q-8 -8 -16 -8zM87 462q13 0 23 -10t9 -22v-261q0 -57 26 -89t96 -32t96 32t26 89v261q-1 12 9 22t24 10q13 0 22 -10t9 -22v-261q0 -83 -40 -133t-146 -49q-106 -1 -146 49 t-40 133v261q-1 14 9 23t23 9z"/>
<glyph glyph-name="ucircumflex" horiz-adv-x="482" unicode="û" d="M326 528l-81 68l-81 -68q-6 -6 -16 -6t-17 7t-7 17q0 12 9 19l96 79q8 6 16 6t16 -6l96 -79q9 -7 9 -19q0 -10 -7 -17t-17 -7t-16 6zM87 462q13 0 23 -10t9 -22v-261q0 -57 26 -89t96 -32t96 32t26 89v261q-1 12 9 22t24 10q13 0 22 -10t9 -22v-261q0 -83 -40 -133 t-146 -49q-106 -1 -146 49t-40 133v261q-1 14 9 23t23 9z"/>
<glyph glyph-name="udieresis" horiz-adv-x="482" unicode="ü" d="M326 534q-36 0 -36 37q0 38 36 38t36 -38q0 -37 -36 -37zM169 534q-36 0 -36 37q0 38 36 38t36 -38q0 -37 -36 -37zM87 462q13 0 23 -10t9 -22v-261q0 -57 26 -89t96 -32t96 32t26 89v261q-1 12 9 22t24 10q13 0 22 -10t9 -22v-261q0 -83 -40 -133t-146 -49 q-106 -1 -146 49t-40 133v261q-1 14 9 23t23 9z"/>
<glyph glyph-name="yacute" horiz-adv-x="438" unicode="ý" d="M178 520q-9 7 -9 16q0 7 6 14l89 108q8 10 18 10t20 -10q11 -11 11 -21q0 -9 -8 -17l-97 -98q-8 -8 -16 -8zM35 -141q26 0 46 8q21 8 33 18q12 9 26 35t22 42t24 57l-167 397q-3 9 -3 14q0 14 9 23t23 9q22 0 30 -21l141 -345l141 345q8 21 30 21q14 0 23 -9t9 -23 q0 -5 -3 -14l-197 -469q-32 -76 -75 -112t-112 -36q-13 1 -21 9t-9 21q1 13 9 21t21 9z"/>
<glyph glyph-name="thorn" horiz-adv-x="509" unicode="þ" d="M127 228q0 -92 38 -138t100 -45q144 0 144 183q0 182 -146 182q-60 0 -98 -45t-38 -137zM129 680v-282q17 28 53 49t83 21q101 0 155 -60t54 -180t-54 -180t-155 -61q-47 1 -83 21t-53 49v-226q1 -13 -9 -23t-23 -9q-13 -1 -23 9t-9 23v849q-1 14 9 23t23 9t23 -9t9 -23z "/>
<glyph glyph-name="OE" horiz-adv-x="923" unicode="Œ" d="M354 625q-116 0 -178 -72t-62 -217q0 -144 62 -216t178 -72q78 0 131 31v514q-55 32 -131 32zM851 0h-332q-16 0 -25 11q-64 -25 -140 -25q-148 0 -229 88t-81 262q0 175 81 263t229 88q76 0 139 -26q10 12 26 12h321q13 0 22 -9t9 -22t-9 -22t-22 -9h-287v-241h220 q13 0 22 -9t9 -22t-9 -22t-22 -9h-220v-246h298q13 0 22 -9t9 -22t-9 -22t-22 -9z"/>
<glyph glyph-name="oe" horiz-adv-x="821" unicode="œ" d="M724 265q0 145 -128 145q-64 0 -100 -38t-41 -107h269zM390 228q-4 182 -145 182q-145 0 -145 -182q0 -183 145 -183q141 0 145 183zM245 468q126 0 178 -93q52 93 173 93q46 0 81 -14t55 -35t34 -49q12 -28 16 -50q4 -24 5 -47q0 -15 -1 -23t-4 -19t-12 -17t-23 -5h-292 q1 -75 41 -119t110 -44q63 0 120 43q9 6 18 6q12 -1 20 -9t9 -20q0 -12 -11 -23q-56 -56 -156 -56q-131 0 -184 92q-52 -92 -177 -92q-99 1 -155 61t-55 180q0 120 55 180t155 60z"/>
<glyph glyph-name="Scaron" horiz-adv-x="558" unicode="Š" d="M286 773l81 68q6 6 16 6t17 -7t7 -17q0 -11 -9 -19l-96 -79q-8 -6 -16 -6t-16 6l-96 79q-9 8 -9 19q0 10 7 17t17 7t16 -6zM443 546q-64 79 -162 79q-73 0 -109 -31t-36 -78q0 -44 39 -74t95 -48t110 -38q56 -22 95 -66t39 -110q0 -94 -62 -144t-178 -50q-82 0 -144 36 t-89 87q-5 10 -5 18q0 13 9 23t23 9q18 0 28 -16q58 -95 178 -95q84 0 128 34t44 98q0 43 -28 73q-28 31 -70 45t-91 32t-91 35q-42 18 -70 57t-28 94q0 74 54 122t159 49q70 1 126 -27t88 -76q6 -9 6 -19q1 -13 -9 -23t-23 -9q-16 0 -26 13z"/>
<glyph glyph-name="scaron" horiz-adv-x="424" unicode="š" d="M212 553l81 68q6 6 16 6t17 -7t7 -17q0 -11 -9 -19l-96 -79q-8 -6 -16 -6t-16 6l-96 79q-9 8 -9 19q0 10 7 17t17 7t16 -6zM207 406q-89 0 -89 -60q0 -29 27 -48q27 -20 66 -32t77 -27t66 -45q27 -30 27 -74q1 -64 -47 -98t-123 -34q-57 0 -103 22t-68 50q-7 10 -7 19 q1 13 9 21t20 8t22 -10q49 -49 127 -49q47 0 77 17t29 54q0 28 -27 46q-28 18 -66 32q-38 12 -77 27t-66 45t-27 76q0 60 42 90t111 31q104 0 152 -64q7 -9 7 -19q0 -12 -8 -20t-21 -9q-12 0 -21 9q-44 42 -109 42z"/>
<glyph glyph-name="Ydieresis" d="M337 741q-36 0 -36 37q0 38 36 38t36 -38q0 -37 -36 -37zM180 741q-36 0 -36 37q0 38 36 38t36 -38q0 -37 -36 -37zM259 -8q-14 0 -24 10t-10 24v287l-201 316q-5 8 -5 18q0 14 10 24t24 10q19 0 29 -16l177 -284l177 284q10 16 29 16q14 0 24 -10t10 -24q0 -10 -5 -18 l-201 -316v-287q0 -14 -10 -24t-24 -10z" unicode="Ÿ"/>
<glyph glyph-name="circumflex" horiz-adv-x="334" unicode="ˆ" d="M248 528l-81 68l-81 -68q-6 -6 -16 -6t-17 7t-7 17q0 12 9 19l96 79q8 6 16 6t16 -6l96 -79q9 -7 9 -19q0 -10 -7 -17t-17 -7t-16 6z"/>
<glyph glyph-name="tilde" horiz-adv-x="378" unicode="˜" d="M130 617q26 1 62 -19t56 -20q25 0 46 28q8 11 20 11q10 0 17 -7t7 -17q0 -6 -3 -12q-26 -52 -87 -52q-26 -1 -62 19t-56 20q-25 0 -46 -28q-8 -11 -20 -11q-10 0 -17 7t-7 17q0 6 3 12q26 52 87 52z"/>
<glyph glyph-name="thinspace" horiz-adv-x="14" unicode=" "/>
<glyph glyph-name="endash" horiz-adv-x="584" unicode="–" d="M481 282q0 -11 -8 -19t-19 -8h-324q-11 0 -19 8t-8 19t8 19t19 8h324q11 0 19 -8t8 -19z"/>
<glyph glyph-name="emdash" horiz-adv-x="918" unicode="—" d="M815 282q0 -11 -8 -19t-19 -8h-658q-11 0 -19 8t-8 19t8 19t19 8h658q11 0 19 -8t8 -19z"/>
<glyph glyph-name="quoteleft" horiz-adv-x="154" unicode="‘" d="M29 496q0 104 72 179q6 6 13 6q15 0 15 -15q0 -4 -3 -9q-37 -51 -37 -91q0 -19 18 -42t18 -44q0 -48 -47 -48q-49 0 -49 64z"/>
<glyph glyph-name="quotesinglbase" horiz-adv-x="179" unicode="‚" d="M129 23q0 -104 -72 -179q-6 -6 -13 -6q-15 0 -15 15q0 5 3 9q37 51 37 91q0 19 -18 42t-18 44q0 48 47 48q49 0 49 -64z"/>
<glyph glyph-name="quotedblleft" horiz-adv-x="292" unicode="“" d="M167 496q0 104 72 179q6 6 13 6q15 0 15 -15q0 -4 -3 -9q-37 -51 -37 -91q0 -19 18 -42t18 -44q0 -48 -47 -48q-49 0 -49 64zM29 496q0 104 72 179q6 6 13 6q15 0 15 -15q0 -4 -3 -9q-37 -51 -37 -91q0 -19 18 -42t18 -44q0 -48 -47 -48q-49 0 -49 64z"/>
<glyph glyph-name="quotedblright" horiz-adv-x="292" unicode="”" d="M125 617q0 -104 -72 -179q-6 -6 -13 -6q-15 0 -15 15q0 5 3 9q37 51 37 91q0 19 -18 42t-18 44q0 48 47 48q49 0 49 -64zM263 617q0 -104 -72 -179q-6 -6 -13 -6q-15 0 -15 15q0 5 3 9q37 51 37 91q0 19 -18 42t-18 44q0 48 47 48q49 0 49 -64z"/>
<glyph glyph-name="dagger" horiz-adv-x="438" unicode="†" d="M219 -150q-20 0 -20 17l-5 600h-113q-20 0 -20 24q0 25 20 25h113l-2 171q0 25 27 25t27 -25l-2 -171h113q20 0 20 -25q0 -24 -20 -24h-113l-5 -600q0 -17 -20 -17z"/>
<glyph glyph-name="daggerdbl" horiz-adv-x="438" unicode="‡" d="M194 467h-113q-20 0 -20 24q0 25 20 25h113l-2 171q0 25 27 25t27 -25l-2 -171h113q20 0 20 -25q0 -24 -20 -24h-113l-3 -211l3 -211h113q20 0 20 -24q0 -25 -20 -25h-113l2 -171q0 -25 -27 -25t-27 25l2 171h-113q-20 0 -20 25q0 24 20 24h113l3 211z"/>
<glyph glyph-name="perthousand" horiz-adv-x="1077" unicode="‰" d="M889 313q77 -1 112 -45t35 -118t-35 -118t-112 -45q-76 1 -111 45t-35 118t35 118t111 45zM889 33q97 0 97 117t-97 117q-96 0 -96 -117t96 -117zM558 313q77 -1 112 -45t35 -118t-35 -118t-112 -45q-76 1 -111 45t-35 118t35 118t111 45zM558 33q97 0 97 117t-97 117 q-96 0 -96 -117t96 -117zM188 687q77 -1 112 -45t35 -118t-35 -118t-112 -45q-76 1 -111 45t-35 118t35 118t111 45zM188 407q97 0 97 117t-97 117q-96 0 -96 -117t96 -117zM535 681q11 1 18 -7t7 -18q0 -6 -2 -10l-326 -641q-6 -13 -22 -13q-10 0 -18 7t-7 18q0 6 2 10 l326 641q7 13 22 13z"/>
<glyph glyph-name="guilsinglleft" horiz-adv-x="367" unicode="‹" d="M77 212q0 9 7 18l163 192q7 9 18 9q10 0 17 -7t7 -17q0 -9 -7 -17l-153 -178l153 -178q7 -8 7 -17q0 -10 -7 -17t-17 -7q-11 0 -18 9l-163 192q-7 9 -7 18z"/>
<glyph glyph-name="guilsinglright" horiz-adv-x="367" unicode="›" d="M290 212q0 -9 -7 -18l-163 -192q-8 -9 -18 -9t-17 7t-7 17q0 9 7 17l153 178l-153 178q-7 8 -7 17q0 10 7 17t17 7t18 -9l163 -192q7 -9 7 -18z"/>
<glyph glyph-name="fraction" horiz-adv-x="313" unicode="⁄" d="M9 29l246 636q5 16 24 16q11 0 19 -8t8 -19q0 -8 -2 -10l-245 -634q-4 -18 -25 -18q-11 0 -19 8t-8 19q0 6 2 10z"/>
<glyph glyph-name="Euro" horiz-adv-x="631" unicode="€" d="M283 239h-161q34 -191 234 -191q52 0 99 21t75 61q9 13 26 13q14 1 23 -9t9 -23q0 -10 -6 -19q-33 -48 -95 -77t-131 -29q-264 0 -305 253h-34q-11 0 -19 8t-8 19t8 19t19 8h28q-1 14 -1 43q0 25 1 37h-28q-11 0 -19 8t-8 19t8 19t19 8h34q20 129 99 195t206 65 q71 -1 130 -29t95 -77q7 -10 7 -21q0 -14 -9 -23t-23 -9q-16 0 -26 13q-28 37 -74 61t-100 23q-198 0 -235 -198h162q11 0 19 -8t8 -19t-8 -19t-19 -8h-168q-1 -12 -1 -37q0 -30 1 -43h168q11 0 19 -8t8 -19t-8 -19t-19 -8z"/>
<glyph glyph-name="trademark" horiz-adv-x="404" unicode="™" d="M294 507q-10 0 -15 8l-32 55v-85q1 -7 -5 -13t-13 -5q-7 -1 -13 5t-5 13v152q-1 7 5 13t13 5q11 0 17 -11l48 -86l48 86q6 11 17 11q7 1 13 -5t5 -13v-152q1 -7 -5 -13t-13 -5q-7 -1 -13 5t-5 13v85l-32 -55q-5 -8 -15 -8zM43 652h123q7 0 12 -5t5 -12t-5 -12t-12 -5h-42 v-132q0 -8 -6 -14t-13 -5q-7 -1 -13 5t-6 14v132h-43q-7 0 -12 5t-5 12t5 12t12 5z"/>
<glyph glyph-name="minus" horiz-adv-x="454" unicode="−" d="M454 218q0 -11 -8 -19t-19 -8h-400q-11 0 -19 8t-8 19t8 19t19 8h400q11 0 19 -8t8 -19z"/>
<glyph glyph-name="radical" horiz-adv-x="539" unicode="√" d="M492 675l-221 -828q-5 -18 -27 -18q-18 0 -26 17l-171 388q-2 4 -2 10q1 12 9 20t19 9q19 0 26 -16l140 -331l198 765q5 21 27 21q12 0 20 -8t9 -21q0 -4 -1 -8z"/>
<glyph glyph-name="notequal" horiz-adv-x="454" unicode="≠" d="M454 141q0 -11 -8 -19t-19 -8h-252l-29 -43q-5 -8 -14 -8q-16 0 -16 16q0 4 2 8l18 27h-109q-11 0 -19 8t-8 19t8 19t19 8h146l68 99h-214q-11 0 -19 8t-8 19t8 19t19 8h251l31 44q5 8 14 8q16 0 16 -16q0 -4 -2 -8l-20 -28h110q11 0 19 -8t8 -19t-8 -19t-19 -8h-147 l-68 -99h215q11 0 19 -8t8 -19z"/>
<glyph glyph-name="lessequal" horiz-adv-x="337" unicode="≤" d="M66 287l258 -148q13 -8 13 -23q0 -11 -8 -19t-19 -8q-8 0 -16 5l-281 170q-13 9 -13 23t13 23l281 170q8 5 16 5q11 0 19 -8t8 -19q0 -15 -13 -23zM337 27q0 -11 -8 -19t-19 -8h-283q-11 0 -19 8t-8 19t8 19t19 8h283q11 0 19 -8t8 -19z"/>
<glyph glyph-name="greaterequal" horiz-adv-x="337" unicode="≥" d="M13 139l258 148l-258 148q-13 8 -13 23q0 11 8 19t19 8q8 0 16 -5l281 -170q13 -9 13 -23t-13 -23l-281 -170q-8 -5 -16 -5q-11 0 -19 8t-8 19q0 15 13 23zM0 27q0 11 8 19t19 8h283q11 0 19 -8t8 -19t-8 -19t-19 -8h-283q-11 0 -19 8t-8 19z"/>
</font>
</defs>
</svg>
